<?xml version="1.0" standalone="no"?>
<!DOCTYPE svg PUBLIC "-//W3C//DTD SVG 1.1//EN" "http://www.w3.org/Graphics/SVG/1.1/DTD/svg11.dtd">
<svg xmlns="http://www.w3.org/2000/svg" xmlns:xlink="http://www.w3.org/1999/xlink" viewBox="0 0 682.01 634.95" width="682.010009765625" height="634.9500122070312"><defs><style>.cls-1{isolation:isolate;}.cls-2,.cls-57,.cls-58,.cls-59{opacity:0.2;}.cls-3{fill:url(#linear-gradient);}.cls-4{fill:url(#linear-gradient-2);}.cls-5{fill:url(#linear-gradient-3);}.cls-6{fill:url(#linear-gradient-4);}.cls-7{fill:url(#linear-gradient-5);}.cls-8{fill:url(#linear-gradient-6);}.cls-9{fill:url(#linear-gradient-7);}.cls-10{fill:url(#linear-gradient-8);}.cls-11{fill:url(#linear-gradient-9);}.cls-12{fill:url(#linear-gradient-10);}.cls-13{fill:url(#linear-gradient-11);}.cls-14{fill:url(#linear-gradient-12);}.cls-15{fill:url(#linear-gradient-13);}.cls-16{fill:url(#linear-gradient-14);}.cls-17{fill:url(#linear-gradient-15);}.cls-18{fill:url(#linear-gradient-16);}.cls-19{fill:url(#linear-gradient-17);}.cls-20{fill:url(#linear-gradient-18);}.cls-21{fill:url(#linear-gradient-19);}.cls-22{fill:url(#linear-gradient-20);}.cls-23{fill:url(#linear-gradient-21);}.cls-24{fill:url(#linear-gradient-22);}.cls-25{fill:url(#linear-gradient-23);}.cls-26{fill:url(#linear-gradient-24);}.cls-27{fill:url(#linear-gradient-25);}.cls-28{fill:url(#linear-gradient-26);}.cls-29{fill:url(#linear-gradient-27);}.cls-30{fill:url(#linear-gradient-28);}.cls-31{fill:url(#linear-gradient-29);}.cls-32{fill:url(#linear-gradient-30);}.cls-33{fill:url(#linear-gradient-31);}.cls-34{fill:url(#linear-gradient-32);}.cls-35{fill:url(#linear-gradient-33);}.cls-36{fill:url(#linear-gradient-34);}.cls-37{fill:url(#linear-gradient-35);}.cls-38{fill:url(#linear-gradient-36);}.cls-39{fill:url(#linear-gradient-37);}.cls-40{fill:url(#linear-gradient-38);}.cls-41{fill:url(#linear-gradient-39);}.cls-42{fill:url(#linear-gradient-40);}.cls-43{fill:url(#linear-gradient-41);}.cls-44{fill:url(#linear-gradient-42);}.cls-45{fill:url(#linear-gradient-43);}.cls-46{fill:url(#linear-gradient-44);}.cls-47{fill:url(#linear-gradient-45);}.cls-48{fill:url(#linear-gradient-46);}.cls-49{fill:url(#linear-gradient-47);}.cls-50{fill:#61b77c;}.cls-51{fill:#96cba3;}.cls-52,.cls-61{fill:#ffde59af;}.cls-52,.cls-72{mix-blend-mode:multiply;}.cls-53{fill:#f8b031;}.cls-54{fill:#ffdd59;}.cls-55{fill:#ffd888;}.cls-56{fill:#e89510;}.cls-57{fill:url(#linear-gradient-48);}.cls-58{fill:url(#linear-gradient-49);}.cls-59{fill:url(#linear-gradient-50);}.cls-60{fill:#9fb3c0;}.cls-62{fill:url(#linear-gradient-51);}.cls-63{fill:#ffa801;}.cls-64{fill:#ffa801;}.cls-65{fill:url(#linear-gradient-52);}.cls-66{fill:#ffd32a;}.cls-67{fill:url(#linear-gradient-53);}.cls-68{fill:url(#linear-gradient-54);}.cls-69{fill:url(#linear-gradient-55);}.cls-70{fill:#ffdd59;}.cls-71{fill:url(#linear-gradient-56);}.cls-73{fill:#ffde59af;}.cls-74{fill:#d2dae2;}.cls-75{fill:#808e9b;}.cls-76{fill:url(#linear-gradient-57);}.cls-77{fill:url(#linear-gradient-58);}.cls-78{fill:url(#linear-gradient-59);}.cls-79{fill:url(#linear-gradient-60);}.cls-80{fill:url(#linear-gradient-61);}.cls-81{fill:url(#linear-gradient-62);}.cls-82{fill:url(#linear-gradient-63);}.cls-83{fill:#808e9b;}.cls-84{fill:white;}.cls-85{fill:white;}.cls-86{fill:white;}.cls-87{fill:url(#linear-gradient-64);}.cls-88{fill:url(#linear-gradient-65);}.cls-89{fill:white;}.cls-90{fill:#485460;}.cls-91{fill:url(#linear-gradient-66);}.cls-92{fill:#ffde59af;}</style><linearGradient id="linear-gradient" x1="474.17" y1="343.1" x2="494.92" y2="343.1" gradientUnits="userSpaceOnUse"><stop offset="0" stop-color="#ffb300"/><stop offset="1" stop-color="#ffa801"/></linearGradient><linearGradient id="linear-gradient-2" x1="453.45" y1="331.14" x2="474.21" y2="331.14" xlink:href="#linear-gradient"/><linearGradient id="linear-gradient-3" x1="432.74" y1="319.19" x2="453.5" y2="319.19" xlink:href="#linear-gradient"/><linearGradient id="linear-gradient-4" x1="412.03" y1="307.23" x2="432.79" y2="307.23" xlink:href="#linear-gradient"/><linearGradient id="linear-gradient-5" x1="391.32" y1="295.27" x2="412.07" y2="295.27" xlink:href="#linear-gradient"/><linearGradient id="linear-gradient-6" x1="867.13" y1="492.19" x2="887.88" y2="492.19" xlink:href="#linear-gradient"/><linearGradient id="linear-gradient-7" x1="846.41" y1="480.23" x2="867.17" y2="480.23" xlink:href="#linear-gradient"/><linearGradient id="linear-gradient-8" x1="825.7" y1="468.28" x2="846.46" y2="468.28" xlink:href="#linear-gradient"/><linearGradient id="linear-gradient-9" x1="804.99" y1="456.32" x2="825.75" y2="456.32" xlink:href="#linear-gradient"/><linearGradient id="linear-gradient-10" x1="784.28" y1="444.36" x2="805.03" y2="444.36" xlink:href="#linear-gradient"/><linearGradient id="linear-gradient-11" x1="605.39" y1="564.14" x2="626.15" y2="564.14" xlink:href="#linear-gradient"/><linearGradient id="linear-gradient-12" x1="584.68" y1="552.18" x2="605.43" y2="552.18" xlink:href="#linear-gradient"/><linearGradient id="linear-gradient-13" x1="563.97" y1="540.22" x2="584.72" y2="540.22" xlink:href="#linear-gradient"/><linearGradient id="linear-gradient-14" x1="543.26" y1="528.26" x2="564.01" y2="528.26" xlink:href="#linear-gradient"/><linearGradient id="linear-gradient-15" x1="522.54" y1="516.3" x2="543.3" y2="516.3" xlink:href="#linear-gradient"/><linearGradient id="linear-gradient-16" x1="842.84" y1="453.65" x2="970.42" y2="453.65" xlink:href="#linear-gradient"/><linearGradient id="linear-gradient-17" x1="758.34" y1="389.94" x2="834.34" y2="389.94" xlink:href="#linear-gradient"/><linearGradient id="linear-gradient-18" x1="810.41" y1="401.76" x2="937.99" y2="401.76" xlink:href="#linear-gradient"/><linearGradient id="linear-gradient-19" x1="670.54" y1="320.96" x2="798.12" y2="320.96" xlink:href="#linear-gradient"/><linearGradient id="linear-gradient-20" x1="607.72" y1="350.98" x2="735.3" y2="350.98" xlink:href="#linear-gradient"/><linearGradient id="linear-gradient-21" x1="814.14" y1="447.88" x2="864.35" y2="447.88" xlink:href="#linear-gradient"/><linearGradient id="linear-gradient-22" x1="539.63" y1="289.3" x2="589.84" y2="289.3" xlink:href="#linear-gradient"/><linearGradient id="linear-gradient-23" x1="788.65" y1="356.04" x2="916.23" y2="356.04" xlink:href="#linear-gradient"/><linearGradient id="linear-gradient-24" x1="720.56" y1="294.36" x2="770.77" y2="294.36" xlink:href="#linear-gradient"/><linearGradient id="linear-gradient-25" x1="837.06" y1="600.98" x2="964.64" y2="600.98" xlink:href="#linear-gradient"/><linearGradient id="linear-gradient-26" x1="752.56" y1="537.27" x2="828.56" y2="537.27" xlink:href="#linear-gradient"/><linearGradient id="linear-gradient-27" x1="804.64" y1="549.1" x2="932.22" y2="549.1" xlink:href="#linear-gradient"/><linearGradient id="linear-gradient-28" x1="664.76" y1="468.3" x2="792.35" y2="468.3" xlink:href="#linear-gradient"/><linearGradient id="linear-gradient-29" x1="601.94" y1="498.32" x2="729.52" y2="498.32" xlink:href="#linear-gradient"/><linearGradient id="linear-gradient-30" x1="808.37" y1="595.22" x2="858.58" y2="595.22" xlink:href="#linear-gradient"/><linearGradient id="linear-gradient-31" x1="533.85" y1="436.64" x2="584.07" y2="436.64" xlink:href="#linear-gradient"/><linearGradient id="linear-gradient-32" x1="782.88" y1="503.37" x2="910.46" y2="503.37" xlink:href="#linear-gradient"/><linearGradient id="linear-gradient-33" x1="714.79" y1="441.69" x2="765" y2="441.69" xlink:href="#linear-gradient"/><linearGradient id="linear-gradient-34" x1="669.25" y1="569.64" x2="796.83" y2="569.64" xlink:href="#linear-gradient"/><linearGradient id="linear-gradient-35" x1="584.74" y1="505.92" x2="660.75" y2="505.92" xlink:href="#linear-gradient"/><linearGradient id="linear-gradient-36" x1="636.82" y1="517.75" x2="764.4" y2="517.75" xlink:href="#linear-gradient"/><linearGradient id="linear-gradient-37" x1="496.95" y1="436.95" x2="624.53" y2="436.95" xlink:href="#linear-gradient"/><linearGradient id="linear-gradient-38" x1="434.13" y1="466.97" x2="561.71" y2="466.97" xlink:href="#linear-gradient"/><linearGradient id="linear-gradient-39" x1="640.55" y1="563.87" x2="690.76" y2="563.87" xlink:href="#linear-gradient"/><linearGradient id="linear-gradient-40" x1="366.04" y1="405.29" x2="416.25" y2="405.29" xlink:href="#linear-gradient"/><linearGradient id="linear-gradient-41" x1="615.06" y1="472.02" x2="742.64" y2="472.02" xlink:href="#linear-gradient"/><linearGradient id="linear-gradient-42" x1="546.97" y1="410.34" x2="597.18" y2="410.34" xlink:href="#linear-gradient"/><linearGradient id="linear-gradient-43" x1="439.62" y1="328.62" x2="567.2" y2="328.62" xlink:href="#linear-gradient"/><linearGradient id="linear-gradient-44" x1="376.8" y1="358.64" x2="504.38" y2="358.64" xlink:href="#linear-gradient"/><linearGradient id="linear-gradient-45" x1="308.71" y1="296.96" x2="358.93" y2="296.96" xlink:href="#linear-gradient"/><linearGradient id="linear-gradient-46" x1="557.73" y1="363.7" x2="685.32" y2="363.7" xlink:href="#linear-gradient"/><linearGradient id="linear-gradient-47" x1="489.65" y1="302.02" x2="539.86" y2="302.02" xlink:href="#linear-gradient"/><linearGradient id="linear-gradient-48" x1="923.33" y1="369.07" x2="948.63" y2="369.07" xlink:href="#linear-gradient"/><linearGradient id="linear-gradient-49" x1="396.09" y1="683.86" x2="436.82" y2="683.86" xlink:href="#linear-gradient"/><linearGradient id="linear-gradient-50" x1="420.23" y1="577.28" x2="445.53" y2="577.28" xlink:href="#linear-gradient"/><linearGradient id="linear-gradient-51" x1="771.08" y1="514.56" x2="640.08" y2="184.11" gradientTransform="matrix(-1, 0, 0, 1, 1254.48, 0)" gradientUnits="userSpaceOnUse"><stop offset="0" stop-color="#a793ce"/><stop offset="0.42" stop-color="#82b1c3"/><stop offset="1" stop-color="#e3a3bd"/></linearGradient><linearGradient id="linear-gradient-52" x1="447.16" y1="344.98" x2="633.05" y2="344.98" xlink:href="#linear-gradient"/><linearGradient id="linear-gradient-53" x1="476.95" y1="467.83" x2="486.46" y2="467.83" xlink:href="#linear-gradient"/><linearGradient id="linear-gradient-54" x1="476.95" y1="412.87" x2="621.65" y2="412.87" xlink:href="#linear-gradient"/><linearGradient id="linear-gradient-55" x1="186.01" y1="375.59" x2="304.68" y2="375.59" xlink:href="#linear-gradient"/><linearGradient id="linear-gradient-56" x1="298.82" y1="336.61" x2="304.68" y2="336.61" xlink:href="#linear-gradient"/><linearGradient id="linear-gradient-57" x1="301.38" y1="260.81" x2="307.24" y2="260.81" xlink:href="#linear-gradient"/><linearGradient id="linear-gradient-58" x1="188.57" y1="299.79" x2="307.24" y2="299.79" xlink:href="#linear-gradient"/><linearGradient id="linear-gradient-59" x1="162.47" y1="359.28" x2="324.79" y2="359.28" xlink:href="#linear-gradient"/><linearGradient id="linear-gradient-60" x1="471.67" y1="386.33" x2="748.28" y2="386.33" xlink:href="#linear-gradient"/><linearGradient id="linear-gradient-61" x1="633.5" y1="467.75" x2="651.35" y2="467.75" xlink:href="#linear-gradient"/><linearGradient id="linear-gradient-62" x1="342.64" y1="379.09" x2="435.88" y2="379.09" xlink:href="#linear-gradient"/><linearGradient id="linear-gradient-63" x1="744.59" y1="410.28" x2="748.29" y2="410.28" xlink:href="#linear-gradient"/><linearGradient id="linear-gradient-64" x1="479.51" y1="392.03" x2="489.02" y2="392.03" xlink:href="#linear-gradient"/><linearGradient id="linear-gradient-65" x1="479.51" y1="337.07" x2="624.21" y2="337.07" xlink:href="#linear-gradient"/><linearGradient id="linear-gradient-66" x1="794.54" y1="526.13" x2="663.55" y2="195.68" gradientTransform="matrix(-1, 0, 0, 1, 945.76, -60.67)" xlink:href="#linear-gradient-51"/></defs><g class="cls-1"><g id="Layer_1" data-name="Layer 1"><g class="cls-2"><path class="cls-3" d="M491.46,338.18l-4.83.95a2.17,2.17,0,0,1-1.17-.11l-4.09-1.76c-.84-.37-2,0-2,.59l.06,2.95c0,.24-.19.47-.53.61l-4.17,1.7c-.86.35-.65,1.12.36,1.3l4.87.87a1.18,1.18,0,0,1,.84.48l1.51,2.82a1.74,1.74,0,0,0,2.25.2l3-2.4a1.68,1.68,0,0,1,1-.31l5.1,0c1.05,0,1.67-.69,1-1.18l-3.05-2.36a.5.5,0,0,1-.19-.67l1.64-2.79C493.41,338.53,492.45,338,491.46,338.18Z" transform="translate(-308.71 -60.67)"/><path class="cls-4" d="M470.75,326.22l-4.84.95a2,2,0,0,1-1.16-.11l-4.09-1.76c-.85-.36-2.05,0-2,.6l.06,2.94c0,.24-.19.47-.53.61l-4.17,1.7c-.86.35-.65,1.12.36,1.3l4.87.87a1.22,1.22,0,0,1,.84.49l1.51,2.81a1.74,1.74,0,0,0,2.25.2l2.95-2.4a1.68,1.68,0,0,1,1.05-.31l5.1,0c1.05,0,1.66-.69,1-1.17l-3.05-2.36a.5.5,0,0,1-.18-.68l1.64-2.79C472.7,326.58,471.74,326,470.75,326.22Z" transform="translate(-308.71 -60.67)"/><path class="cls-5" d="M450,314.26l-4.83.95a2,2,0,0,1-1.17-.11L440,313.34c-.85-.36-2.05,0-2,.6l.06,2.94c0,.24-.19.47-.54.61l-4.16,1.7c-.86.35-.65,1.12.36,1.3l4.87.88a1.14,1.14,0,0,1,.83.48l1.52,2.81a1.76,1.76,0,0,0,2.25.21l2.94-2.41a1.8,1.8,0,0,1,1.06-.31l5.1,0c1.05,0,1.66-.68,1-1.17l-3.05-2.36A.5.5,0,0,1,450,318l1.64-2.79C452,314.62,451,314.07,450,314.26Z" transform="translate(-308.71 -60.67)"/><path class="cls-6" d="M429.32,302.31l-4.83.94a2.1,2.1,0,0,1-1.17-.1l-4.08-1.77c-.85-.36-2.05,0-2,.6l.07,2.95c0,.24-.2.46-.54.6l-4.16,1.7c-.86.36-.65,1.12.36,1.3l4.87.88a1.14,1.14,0,0,1,.83.48l1.52,2.81a1.74,1.74,0,0,0,2.25.21l2.94-2.41a1.78,1.78,0,0,1,1.06-.31l5.1,0c1.05,0,1.66-.68,1-1.17l-3-2.36a.49.49,0,0,1-.18-.67l1.63-2.79C431.27,302.66,430.32,302.11,429.32,302.31Z" transform="translate(-308.71 -60.67)"/><path class="cls-7" d="M408.61,290.35l-4.83.94a2.09,2.09,0,0,1-1.17-.1l-4.09-1.76c-.84-.37-2,0-2,.59l.07,3c0,.24-.2.47-.54.61l-4.16,1.7c-.86.35-.65,1.12.35,1.3l4.87.87a1.16,1.16,0,0,1,.84.48l1.51,2.82a1.76,1.76,0,0,0,2.26.2l2.94-2.4a1.64,1.64,0,0,1,1.05-.31l5.1,0c1.06,0,1.67-.68,1-1.17l-3.05-2.36a.5.5,0,0,1-.19-.67l1.64-2.79C410.56,290.7,409.61,290.15,408.61,290.35Z" transform="translate(-308.71 -60.67)"/></g><g class="cls-2"><path class="cls-8" d="M884.42,487.27l-4.83.94a2.08,2.08,0,0,1-1.17-.1l-4.09-1.76c-.84-.37-2,0-2,.59l.06,2.95c0,.24-.19.47-.53.61l-4.17,1.7c-.86.35-.65,1.12.36,1.3l4.87.87a1.18,1.18,0,0,1,.84.48l1.51,2.82a1.74,1.74,0,0,0,2.25.2l3-2.4a1.62,1.62,0,0,1,1-.31l5.1,0c1,0,1.67-.69,1-1.18l-3-2.36a.5.5,0,0,1-.19-.67L886,488.2C886.37,487.62,885.41,487.07,884.42,487.27Z" transform="translate(-308.71 -60.67)"/><path class="cls-9" d="M863.7,475.31l-4.83.95a2.15,2.15,0,0,1-1.16-.11l-4.09-1.76c-.85-.36-2,0-2,.6l.06,2.94c0,.24-.19.47-.53.61l-4.17,1.7c-.86.35-.65,1.12.36,1.3l4.87.87a1.19,1.19,0,0,1,.84.49l1.51,2.81a1.74,1.74,0,0,0,2.25.2l3-2.4a1.68,1.68,0,0,1,1-.31l5.1,0c1,0,1.66-.69,1-1.18l-3-2.36a.49.49,0,0,1-.18-.67l1.64-2.79C865.65,475.67,864.7,475.12,863.7,475.31Z" transform="translate(-308.71 -60.67)"/><path class="cls-10" d="M843,463.35l-4.83.95a2,2,0,0,1-1.17-.11l-4.08-1.76c-.85-.36-2,0-2,.6l.06,2.94c0,.24-.19.47-.54.61l-4.16,1.7c-.86.35-.65,1.12.36,1.3l4.87.88a1.14,1.14,0,0,1,.83.48l1.52,2.81a1.76,1.76,0,0,0,2.25.21l2.94-2.41a1.73,1.73,0,0,1,1.06-.31l5.1,0c1.05,0,1.66-.69,1-1.17l-3.05-2.36a.5.5,0,0,1-.18-.68l1.64-2.79C844.94,463.71,844,463.16,843,463.35Z" transform="translate(-308.71 -60.67)"/><path class="cls-11" d="M822.28,451.4l-4.83.94a2,2,0,0,1-1.17-.11l-4.08-1.76c-.85-.36-2.05,0-2,.6l.07,2.94c0,.25-.2.47-.54.61l-4.16,1.7c-.86.36-.65,1.12.36,1.3l4.87.88a1.14,1.14,0,0,1,.83.48l1.52,2.81a1.76,1.76,0,0,0,2.25.21l2.94-2.41a1.78,1.78,0,0,1,1.06-.31l5.1,0c1,0,1.66-.68,1-1.17l-3-2.36a.5.5,0,0,1-.18-.68l1.63-2.78C824.23,451.75,823.28,451.2,822.28,451.4Z" transform="translate(-308.71 -60.67)"/><path class="cls-12" d="M801.57,439.44l-4.83.94a2.09,2.09,0,0,1-1.17-.1l-4.09-1.76c-.84-.37-2,0-2,.59l.07,2.95c0,.24-.2.47-.54.61l-4.16,1.7c-.86.35-.65,1.12.35,1.3l4.87.87a1.16,1.16,0,0,1,.84.48l1.51,2.81a1.75,1.75,0,0,0,2.26.21l2.94-2.4a1.64,1.64,0,0,1,1-.31l5.1,0c1.06,0,1.67-.68,1-1.17l-3-2.36a.5.5,0,0,1-.19-.67l1.64-2.79C803.52,439.79,802.57,439.24,801.57,439.44Z" transform="translate(-308.71 -60.67)"/></g><g class="cls-2"><path class="cls-13" d="M622.68,559.21l-4.83.95a2,2,0,0,1-1.17-.11l-4.09-1.76c-.84-.36-2,0-2,.6l.07,2.94c0,.24-.2.47-.54.61l-4.16,1.7c-.86.35-.65,1.12.35,1.3l4.87.88a1.16,1.16,0,0,1,.84.48l1.52,2.81a1.76,1.76,0,0,0,2.25.21l2.94-2.41a1.71,1.71,0,0,1,1.06-.31l5.1,0c1,0,1.66-.69,1-1.17l-3-2.36a.51.51,0,0,1-.19-.68l1.64-2.79C624.63,559.57,623.68,559,622.68,559.21Z" transform="translate(-308.71 -60.67)"/><path class="cls-14" d="M602,547.26l-4.83.94a2,2,0,0,1-1.17-.11l-4.09-1.76c-.84-.36-2,0-2,.6l.07,3c0,.24-.2.46-.54.6l-4.16,1.7c-.86.36-.65,1.12.35,1.3l4.87.88a1.16,1.16,0,0,1,.84.48l1.51,2.81a1.75,1.75,0,0,0,2.25.21l3-2.41a1.77,1.77,0,0,1,1-.31l5.1,0c1.06,0,1.67-.68,1-1.17l-3-2.36a.51.51,0,0,1-.19-.68l1.64-2.78C603.92,547.61,603,547.06,602,547.26Z" transform="translate(-308.71 -60.67)"/><path class="cls-15" d="M581.26,535.3l-4.83.94a2.08,2.08,0,0,1-1.17-.1l-4.09-1.76c-.84-.37-2,0-2,.59l.07,2.95c0,.24-.2.47-.54.61l-4.17,1.7c-.86.35-.64,1.12.36,1.3l4.87.87a1.18,1.18,0,0,1,.84.48l1.51,2.81a1.73,1.73,0,0,0,2.25.21l2.95-2.4a1.62,1.62,0,0,1,1.05-.31l5.1,0c1.06,0,1.67-.68,1-1.17l-3.05-2.36a.5.5,0,0,1-.19-.67l1.64-2.79C583.21,535.65,582.26,535.1,581.26,535.3Z" transform="translate(-308.71 -60.67)"/><path class="cls-16" d="M560.55,523.34l-4.83.95a2.17,2.17,0,0,1-1.17-.11l-4.09-1.76c-.84-.37-2,0-2,.59l.06,3c0,.24-.19.47-.53.61l-4.17,1.7c-.86.35-.65,1.12.36,1.3l4.87.87a1.18,1.18,0,0,1,.84.48l1.51,2.82a1.74,1.74,0,0,0,2.25.2l3-2.4a1.68,1.68,0,0,1,1-.31l5.1,0c1,0,1.67-.69,1-1.18l-3-2.36a.5.5,0,0,1-.19-.67l1.64-2.79C562.5,523.69,561.54,523.14,560.55,523.34Z" transform="translate(-308.71 -60.67)"/><path class="cls-17" d="M539.83,511.38l-4.83,1a2,2,0,0,1-1.16-.11l-4.09-1.76c-.85-.36-2,0-2,.6l.06,2.94c0,.24-.19.47-.53.61l-4.17,1.7c-.86.35-.65,1.12.36,1.3l4.87.87a1.22,1.22,0,0,1,.84.49l1.51,2.81a1.76,1.76,0,0,0,2.25.21l3-2.41a1.68,1.68,0,0,1,1-.31l5.1,0c1,0,1.66-.69,1-1.17l-3-2.36a.5.5,0,0,1-.18-.68l1.64-2.79C541.78,511.74,540.83,511.19,539.83,511.38Z" transform="translate(-308.71 -60.67)"/></g><g class="cls-2"><path class="cls-18" d="M845.5,425.77,954.89,489a14.21,14.21,0,0,0,12.86,0h0c3.56-2,3.56-5.38,0-7.43L858.37,418.34a14.24,14.24,0,0,0-12.87,0h0C842,420.39,842,423.72,845.5,425.77Z" transform="translate(-308.71 -60.67)"/><path class="cls-19" d="M761,377l57.81,33.39a14.21,14.21,0,0,0,12.86,0h0c3.56-2.05,3.56-5.38,0-7.43l-57.8-33.39a14.17,14.17,0,0,0-12.87,0h0C757.45,371.58,757.45,374.91,761,377Z" transform="translate(-308.71 -60.67)"/><path class="cls-20" d="M813.07,373.88l109.39,63.19a14.17,14.17,0,0,0,12.87,0h0c3.55-2.05,3.55-5.38,0-7.43L825.94,366.45a14.24,14.24,0,0,0-12.87,0h0C809.52,368.5,809.52,371.83,813.07,373.88Z" transform="translate(-308.71 -60.67)"/><path class="cls-21" d="M673.2,293.08l109.39,63.19a14.15,14.15,0,0,0,12.86,0h0c3.56-2,3.56-5.38,0-7.43L686.07,285.65a14.24,14.24,0,0,0-12.87,0h0C669.65,287.7,669.65,291,673.2,293.08Z" transform="translate(-308.71 -60.67)"/><path class="cls-22" d="M610.38,323.11l109.39,63.18a14.15,14.15,0,0,0,12.86,0h0c3.56-2.05,3.56-5.38,0-7.43L623.25,315.67a14.24,14.24,0,0,0-12.87,0h0C606.83,317.73,606.83,321.05,610.38,323.11Z" transform="translate(-308.71 -60.67)"/><path class="cls-23" d="M816.8,442.35l32,18.5a14.24,14.24,0,0,0,12.87,0h0c3.55-2.06,3.55-5.38,0-7.44l-32-18.49a14.24,14.24,0,0,0-12.87,0h0C813.25,437,813.25,440.3,816.8,442.35Z" transform="translate(-308.71 -60.67)"/><path class="cls-24" d="M542.29,283.77l32,18.5a14.24,14.24,0,0,0,12.87,0h0c3.55-2,3.55-5.38,0-7.44l-32-18.49a14.24,14.24,0,0,0-12.87,0h0C538.74,278.39,538.74,281.72,542.29,283.77Z" transform="translate(-308.71 -60.67)"/><path class="cls-25" d="M791.31,328.16,900.7,391.35a14.24,14.24,0,0,0,12.87,0h0c3.55-2.06,3.55-5.38,0-7.44L804.18,320.73a14.17,14.17,0,0,0-12.87,0h0C787.76,322.78,787.76,326.11,791.31,328.16Z" transform="translate(-308.71 -60.67)"/><path class="cls-26" d="M723.22,288.82l32,18.5a14.24,14.24,0,0,0,12.87,0h0c3.55-2.05,3.55-5.38,0-7.43l-32-18.5a14.24,14.24,0,0,0-12.87,0h0C719.67,283.44,719.67,286.77,723.22,288.82Z" transform="translate(-308.71 -60.67)"/><path class="cls-27" d="M839.73,573.11,949.11,636.3a14.24,14.24,0,0,0,12.87,0h0c3.55-2.06,3.55-5.39,0-7.44L852.59,565.67a14.21,14.21,0,0,0-12.86,0h0C836.18,567.73,836.18,571.05,839.73,573.11Z" transform="translate(-308.71 -60.67)"/><path class="cls-28" d="M755.23,524.29,813,557.68a14.17,14.17,0,0,0,12.87,0h0c3.55-2,3.55-5.38,0-7.43l-57.81-33.39a14.21,14.21,0,0,0-12.86,0h0C751.67,518.91,751.67,522.24,755.23,524.29Z" transform="translate(-308.71 -60.67)"/><path class="cls-29" d="M807.3,521.22l109.38,63.19a14.24,14.24,0,0,0,12.87,0h0c3.55-2.06,3.55-5.38,0-7.44L820.17,513.78a14.24,14.24,0,0,0-12.87,0h0C803.75,515.84,803.75,519.16,807.3,521.22Z" transform="translate(-308.71 -60.67)"/><path class="cls-30" d="M667.43,440.42l109.38,63.19a14.24,14.24,0,0,0,12.87,0h0c3.55-2.06,3.55-5.38,0-7.44L680.3,433a14.24,14.24,0,0,0-12.87,0h0C663.88,435,663.88,438.36,667.43,440.42Z" transform="translate(-308.71 -60.67)"/><path class="cls-31" d="M604.61,470.44,714,533.63a14.24,14.24,0,0,0,12.87,0h0c3.55-2,3.55-5.38,0-7.43L617.48,463a14.17,14.17,0,0,0-12.87,0h0C601.06,465.06,601.06,468.39,604.61,470.44Z" transform="translate(-308.71 -60.67)"/><path class="cls-32" d="M811,589.68l32,18.5a14.21,14.21,0,0,0,12.86,0h0c3.56-2,3.56-5.38,0-7.43l-32-18.5a14.24,14.24,0,0,0-12.87,0h0C807.48,584.3,807.48,587.63,811,589.68Z" transform="translate(-308.71 -60.67)"/><path class="cls-33" d="M536.52,431.1l32,18.5a14.21,14.21,0,0,0,12.86,0h0c3.56-2.05,3.56-5.38,0-7.43l-32-18.5a14.24,14.24,0,0,0-12.87,0h0C533,425.72,533,429.05,536.52,431.1Z" transform="translate(-308.71 -60.67)"/><path class="cls-34" d="M785.54,475.49l109.39,63.19a14.21,14.21,0,0,0,12.86,0h0c3.56-2,3.56-5.38,0-7.43L798.41,468.06a14.24,14.24,0,0,0-12.87,0h0C782,470.11,782,473.44,785.54,475.49Z" transform="translate(-308.71 -60.67)"/><path class="cls-35" d="M717.45,436.16l32,18.49a14.17,14.17,0,0,0,12.87,0h0c3.55-2,3.55-5.38,0-7.43l-32-18.5a14.24,14.24,0,0,0-12.87,0h0C713.9,430.78,713.9,434.1,717.45,436.16Z" transform="translate(-308.71 -60.67)"/><path class="cls-36" d="M671.91,541.76,781.3,605a14.21,14.21,0,0,0,12.86,0h0c3.56-2.06,3.56-5.38,0-7.44L684.78,534.32a14.24,14.24,0,0,0-12.87,0h0C668.36,536.38,668.36,539.7,671.91,541.76Z" transform="translate(-308.71 -60.67)"/><path class="cls-37" d="M587.41,492.94l57.81,33.4a14.21,14.21,0,0,0,12.86,0h0c3.56-2.06,3.56-5.38,0-7.44l-57.8-33.39a14.24,14.24,0,0,0-12.87,0h0C583.86,487.56,583.86,490.89,587.41,492.94Z" transform="translate(-308.71 -60.67)"/><path class="cls-38" d="M639.48,489.87l109.39,63.19a14.21,14.21,0,0,0,12.86,0h0c3.56-2,3.56-5.38,0-7.44L652.35,482.44a14.17,14.17,0,0,0-12.87,0h0C635.93,484.49,635.93,487.82,639.48,489.87Z" transform="translate(-308.71 -60.67)"/><path class="cls-39" d="M499.61,409.07,609,472.26a14.21,14.21,0,0,0,12.86,0h0c3.56-2.06,3.56-5.38,0-7.44L512.48,401.63a14.24,14.24,0,0,0-12.87,0h0C496.06,403.69,496.06,407,499.61,409.07Z" transform="translate(-308.71 -60.67)"/><path class="cls-40" d="M436.79,439.09l109.39,63.19a14.21,14.21,0,0,0,12.86,0h0c3.56-2,3.56-5.38,0-7.43L449.66,431.66a14.17,14.17,0,0,0-12.87,0h0C433.24,433.71,433.24,437,436.79,439.09Z" transform="translate(-308.71 -60.67)"/><path class="cls-41" d="M643.21,558.34l32,18.49a14.24,14.24,0,0,0,12.87,0h0c3.55-2.05,3.55-5.38,0-7.43l-32-18.5a14.24,14.24,0,0,0-12.87,0h0C639.66,553,639.66,556.28,643.21,558.34Z" transform="translate(-308.71 -60.67)"/><path class="cls-42" d="M368.7,399.76l32,18.49a14.24,14.24,0,0,0,12.87,0h0c3.55-2.05,3.55-5.38,0-7.43l-32-18.5a14.24,14.24,0,0,0-12.87,0h0C365.15,394.38,365.15,397.7,368.7,399.76Z" transform="translate(-308.71 -60.67)"/><path class="cls-43" d="M617.72,444.14l109.39,63.19a14.24,14.24,0,0,0,12.87,0h0c3.55-2.05,3.55-5.38,0-7.43L630.59,436.71a14.24,14.24,0,0,0-12.87,0h0C614.17,438.76,614.17,442.09,617.72,444.14Z" transform="translate(-308.71 -60.67)"/><path class="cls-44" d="M549.63,404.81l32,18.49a14.17,14.17,0,0,0,12.87,0h0c3.55-2.05,3.55-5.38,0-7.43l-32-18.49a14.17,14.17,0,0,0-12.87,0h0C546.08,399.43,546.08,402.76,549.63,404.81Z" transform="translate(-308.71 -60.67)"/><path class="cls-45" d="M442.29,300.74l109.38,63.19a14.17,14.17,0,0,0,12.87,0h0c3.55-2.05,3.55-5.38,0-7.43L455.15,293.31a14.21,14.21,0,0,0-12.86,0h0C438.73,295.36,438.73,298.69,442.29,300.74Z" transform="translate(-308.71 -60.67)"/><path class="cls-46" d="M379.47,330.77,488.85,394a14.24,14.24,0,0,0,12.87,0h0c3.55-2.06,3.55-5.38,0-7.44L392.33,323.33a14.21,14.21,0,0,0-12.86,0h0C375.91,325.39,375.91,328.71,379.47,330.77Z" transform="translate(-308.71 -60.67)"/><path class="cls-47" d="M311.38,291.43l32,18.5a14.24,14.24,0,0,0,12.87,0h0c3.55-2.05,3.55-5.38,0-7.43l-32-18.5a14.21,14.21,0,0,0-12.86,0h0C307.82,286.05,307.82,289.38,311.38,291.43Z" transform="translate(-308.71 -60.67)"/><path class="cls-48" d="M560.4,335.82,669.78,399a14.24,14.24,0,0,0,12.87,0h0c3.55-2.05,3.55-5.38,0-7.43L573.27,328.39a14.17,14.17,0,0,0-12.87,0h0C556.85,330.44,556.85,333.77,560.4,335.82Z" transform="translate(-308.71 -60.67)"/><path class="cls-49" d="M492.31,296.49l32,18.49a14.21,14.21,0,0,0,12.86,0h0c3.56-2.05,3.56-5.38,0-7.43l-32-18.5a14.24,14.24,0,0,0-12.87,0h0C488.76,291.1,488.76,294.43,492.31,296.49Z" transform="translate(-308.71 -60.67)"/></g><path class="cls-50" d="M831.65,500.46,714.93,511v2.37l116.72-10.48Z" transform="translate(-308.71 -60.67)"/><path class="cls-50" d="M694,400.31q13.17,48.92,26.36,97.83a23.93,23.93,0,0,1,7,.39c3.62.78,8.14,2.81,9.11,6.4L808,498.52c-1.12-4.19,3.3-7.27,7.48-8.5a21.83,21.83,0,0,1,4.3-.82q-13.18-48.9-26.37-97.83c-4.19.38-9.21-.33-12.75-2.65a7.59,7.59,0,0,1-3.37-4.13L705.75,391c.49,1.83-.07,4-2.32,5.86C700.93,399,697.22,400,694,400.31Zm30.62,47.35c-1.52-5.67,1.59-10.75,6.28-14.32,12.82-9.7,38.07-9.92,51.38-.42,5.11,3.67,8.53,9,6.77,15-2.17,7.41-11,11.93-18.38,13.93a54.77,54.77,0,0,1-27.71,0C735.43,459.75,726.61,455.13,724.59,447.66Z" transform="translate(-308.71 -60.67)"/><path class="cls-50" d="M682,388.94v2.38l32.9,122V511C714.78,510.42,682.25,389.75,682,388.94Z" transform="translate(-308.71 -60.67)"/><path class="cls-51" d="M730.87,433.34c-4.69,3.57-7.8,8.65-6.28,14.32,2,7.47,10.84,12.09,18.34,14.14a54.77,54.77,0,0,0,27.71,0c7.41-2,16.21-6.52,18.38-13.93,1.76-6-1.66-11.31-6.77-15C768.94,423.42,743.69,423.64,730.87,433.34Z" transform="translate(-308.71 -60.67)"/><path class="cls-51" d="M736.46,504.93c-1-3.59-5.49-5.62-9.11-6.4a23.93,23.93,0,0,0-7-.39Q707.15,449.21,694,400.31c3.25-.3,7-1.33,9.46-3.45,2.25-1.9,2.81-4,2.32-5.86l71.49-6.41-.37-4.17L682,388.94c.22.81,32.59,120.9,32.9,122l93.37-8.4-.35-4Z" transform="translate(-308.71 -60.67)"/><path class="cls-51" d="M776.87,380.42l.37,4.17a7.59,7.59,0,0,0,3.37,4.13c3.54,2.32,8.56,3,12.75,2.65q13.2,48.92,26.37,97.83a21.83,21.83,0,0,0-4.3.82c-4.18,1.23-8.6,4.31-7.48,8.5l.35,4,23.35-2.1-32.89-122Z" transform="translate(-308.71 -60.67)"/><path class="cls-52" d="M714.93,511v2.37l-1.23-.5S681.51,393.37,681.44,393c0-.18.59-4,.59-4Z" transform="translate(-308.71 -60.67)"/><path class="cls-50" d="M797,397q-25.59,14.75-51.18,29.54c5.49,3.16,5.54,8.33,0,11.53q60.65,35,121.26,70c5.47-3.14,14.41-3.19,20,0l51.18-29.54c-5.47-3.16-5.56-8.32,0-11.52q-60.64-35-121.26-70C811.37,400.19,802.41,400.14,797,397Zm21.94,68.84C805.36,458,806.35,445.2,821,438.11c8.71-4.24,19.83-5.29,29.43-3.8,7.38,1.14,15.91,4.15,20.78,9.79s4.57,12.09-.61,17.52C860.1,472.57,834.27,474.71,818.9,465.83Z" transform="translate(-308.71 -60.67)"/><path class="cls-51" d="M821,438.11c-14.61,7.09-15.6,19.9-2.06,27.72,15.37,8.88,41.2,6.74,51.66-4.21,5.18-5.43,5.4-12,.61-17.52C862.14,433.65,837.79,429.92,821,438.11Z" transform="translate(-308.71 -60.67)"/><polygon class="cls-50" points="415.83 374.64 567.07 461.96 567.07 459.57 415.83 372.25 415.83 374.64"/><path class="cls-51" d="M875.78,520.24,959.3,472,808.06,384.71l-83.52,48.22Zm62.4-41.73L887,508.05c-5.55-3.19-14.49-3.14-20,0q-60.63-35-121.26-70c5.54-3.2,5.49-8.37,0-11.53Q771.39,411.74,797,397c5.45,3.15,14.41,3.2,20,0q60.63,35,121.26,70C932.62,470.19,932.71,475.35,938.18,478.51Z" transform="translate(-308.71 -60.67)"/><polygon class="cls-50" points="567.07 461.96 650.59 413.73 650.59 411.36 567.07 459.57 567.07 461.96"/><path class="cls-52" d="M875.78,520.24v2.39h-3.45s-125-71.95-150.06-86.4a10,10,0,0,1,2.27-.92v-2.38Z" transform="translate(-308.71 -60.67)"/><path class="cls-53" d="M748.44,488.45v-10.7a9.61,9.61,0,0,1-.17,1.79c-1.56,8.72-14.34,15.54-29.85,15.54-16,0-29.18-7.29-30-16.44a3.27,3.27,0,0,1,0-.54v10.35c0,6.18,5.69,11.91,15,15a49.48,49.48,0,0,0,30.7-.21C743,500.08,748.44,494.46,748.44,488.45Z" transform="translate(-308.71 -60.67)"/><path class="cls-54" d="M688.6,475.69c0-.15.17-.71.17-.71a11.38,11.38,0,0,1,.56-1.51v0a17.24,17.24,0,0,1,1.09-2,15.88,15.88,0,0,1,2.42-2.77l.39-.38a26.48,26.48,0,0,1,5.92-3.86.56.56,0,0,1,.19-.09c10.79-5.23,27.34-5.35,38.4.12a32.54,32.54,0,0,1,4.67,2.84,17.54,17.54,0,0,1,4.08,4.28,13.87,13.87,0,0,1,.77,1.35,9.85,9.85,0,0,1,.61,1.44,10.13,10.13,0,0,1,.53,4.25c0,.3-.08.59-.13.89-1.56,8.73-14.34,15.54-29.85,15.54-16,0-29.18-7.29-30-16.44A12,12,0,0,1,688.6,475.69Zm4.19,3.61h0a5.91,5.91,0,0,1,.05-.7c.68,7.21,10.34,13.05,22.61,13.85,1,.08,2,.11,3,.11,13.63,0,24.8-6.16,25.59-13.91a8.83,8.83,0,0,0,0-.89c0-8.17-11.49-14.79-25.63-14.79s-25.63,6.62-25.63,14.79A14.11,14.11,0,0,0,692.79,479.3Z" transform="translate(-308.71 -60.67)"/><path class="cls-55" d="M692.79,479.3h0a5.91,5.91,0,0,1,.05-.7c.68,7.21,10.34,13.05,22.61,13.85,1,.08,2,.11,3,.11,13.63,0,24.8-6.16,25.59-13.91a8.83,8.83,0,0,0,0-.89c0-8.17-11.49-14.79-25.63-14.79s-25.63,6.62-25.63,14.79A14.11,14.11,0,0,0,692.79,479.3Z" transform="translate(-308.71 -60.67)"/><path class="cls-53" d="M950,580.23c4.06-3,6.38-6.74,6.38-10.69h0v-8.66l-.18-.15c-1.63,8.68-14.38,15.45-29.85,15.45-15.9,0-28.93-7.15-30-16.19-.13-.68-.07-4.62-.07,9.55,0,5.72,4.79,10.24,9.93,12.88C919.19,589.17,939.36,588.07,950,580.23Z" transform="translate(-308.71 -60.67)"/><path class="cls-56" d="M900.69,558.84a6.32,6.32,0,0,0,0,.87c.48-5,5.19-9.26,12.09-11.72A40.18,40.18,0,0,1,926,545.77c13.76-.12,25.18,6.06,25.95,14,0-.16.05-.64.05-.88,0-8.17-11.49-14.8-25.63-14.8S900.69,550.67,900.69,558.84Z" transform="translate(-308.71 -60.67)"/><path class="cls-55" d="M950,580.23c5.24-2,10.84-5.92,11.35-11.48.58-3.59-2-7.3-4.94-9.59,0,2.88,0,7.5,0,10.38h0C956.33,573.49,954,577.24,950,580.23Z" transform="translate(-308.71 -60.67)"/><path class="cls-54" d="M896.51,556.8a9.63,9.63,0,0,1,.46-1.59,15.08,15.08,0,0,1,4.86-6.39,30.23,30.23,0,0,1,8.93-4.81,48.87,48.87,0,0,1,30.43-.22,35,35,0,0,1,7.15,3.27h0a23.25,23.25,0,0,1,3.46,2.6,17.8,17.8,0,0,1,2.8,3.36l0,0h0a.09.09,0,0,1,0,0,14.86,14.86,0,0,1,.72,1.35v0a4.38,4.38,0,0,1,.19.44h0a10,10,0,0,1,.79,4.23c0,5.54-5.26,10.21-10.3,12.74C927,581.42,898,574.07,896.37,560A10.26,10.26,0,0,1,896.51,556.8Z" transform="translate(-308.71 -60.67)"/><path class="cls-55" d="M912.83,548A40.18,40.18,0,0,1,926,545.77c13.76-.12,25.18,6.06,25.95,14,0,0,0,.36,0,.47-.72,4.89-5.52,8.42-10.06,10.43a38.68,38.68,0,0,1-15.47,3c-13.64,0-24.81-6.15-25.58-13.92C901.22,554.76,905.93,550.45,912.83,548Z" transform="translate(-308.71 -60.67)"/><path class="cls-54" d="M939.44,585.13c11.56-.83,21.27-5.46,24.85-11.9a10.43,10.43,0,0,0,.78-8.93v0c-1.43-4.11-5.55-7.32-9.5-9.35a10.27,10.27,0,0,1,.79,4.22c9,7.07,5.24,16.62-6.4,21.08A32.33,32.33,0,0,1,939.44,585.13Z" transform="translate(-308.71 -60.67)"/><path class="cls-53" d="M964.29,573.23c-3.58,6.44-13.29,11.07-24.85,11.9-11.94,3.3-24.79,1.68-33.21-2.71l.24.13c3.5,8.68,17.81,14.42,33.12,13.27,15-1.12,26.16-8.51,26.15-17.18v-10.7A10.93,10.93,0,0,1,964.29,573.23Z" transform="translate(-308.71 -60.67)"/><path class="cls-50" d="M828,356.08q-25.6,14.76-51.18,29.54c1.66,3,3.76,6.72,4.08,10a7.55,7.55,0,0,1-4.08,7.69c23.51,19.77,70.74,23.7,121.26,59.52,5.42-3.13,14.39-2.69,20,1.71L969.22,435c-5.55-4.39-5.46-10.07,0-13.24-50.71-36-97.61-39.63-121.26-59.52a13.74,13.74,0,0,1-6.07,1.69A14.58,14.58,0,0,1,828,356.08Zm21.93,67.66c-10.61-4.18-12.1-11.32-5.84-17.67,11.8-11.95,44.9-16,57.39-6,2.74,2.19,4.49,5.13,4.13,8.64-.67,6.39-7.75,11.17-13.69,13.71C878.89,428,861,428.08,849.94,423.74Z" transform="translate(-308.71 -60.67)"/><path class="cls-50" d="M839.11,338.42l-83.53,48.23,1.61.12c101.17-58.41,80.27-46.3,83.53-48.23Z" transform="translate(-308.71 -60.67)"/><path class="cls-51" d="M990.72,430c-70.45-58.85-136.41-47.79-150-91.47l-.37.22c-1.1.55,4.09-2.36-83.16,48,13.6,43.68,79.55,32.61,150,91.45ZM776.83,385.62q25.59-14.78,51.18-29.54A14.58,14.58,0,0,0,841.89,364a13.74,13.74,0,0,0,6.07-1.69c23.65,19.89,70.55,23.56,121.26,59.52-5.46,3.17-5.55,8.85,0,13.24l-51.17,29.54c-5.57-4.4-14.54-4.84-20-1.71C847.57,427,800.34,423.1,776.83,403.33a7.55,7.55,0,0,0,4.08-7.69C780.59,392.34,778.49,388.62,776.83,385.62Z" transform="translate(-308.71 -60.67)"/><path class="cls-51" d="M844.1,406.07c-6.26,6.35-4.77,13.49,5.84,17.67,11,4.34,28.95,4.24,42-1.28,5.94-2.54,13-7.32,13.69-13.71.36-3.51-1.39-6.45-4.13-8.64C889,390.11,855.9,394.12,844.1,406.07Z" transform="translate(-308.71 -60.67)"/><path class="cls-50" d="M755.58,386.65C770,433,836.2,421,906.82,480l.38-1.78c-70.46-58.84-136.41-47.77-150-91.45Z" transform="translate(-308.71 -60.67)"/><polygon class="cls-50" points="598.11 419.33 681.64 371.1 682.01 369.34 598.48 417.55 598.11 419.33"/><path class="cls-52" d="M783.57,415.53a241.6,241.6,0,0,0,28.82,12c25.64,9.14,53.85,20.76,75.82,36.35,5.09,3.61,19,14.35,19,14.35S919.48,471,936,461.43l30-17.34c1.61.81-59.21,35.91-59.21,35.91s-36.44-5.06-53.33-15.44C838,455,799.71,426.81,742.8,411.66a29.6,29.6,0,0,1-4.6-1.44c-.19-.19,4.37-3.05,10.68-6.68,6.06-3.49,11.2-6.82,11.2-6.82a41.62,41.62,0,0,1-4.5-10.07l1.61.12S761.08,404.81,783.57,415.53Z" transform="translate(-308.71 -60.67)"/><path class="cls-57" d="M927,363.91c-4.94,2.85-4.94,7.48,0,10.33s13,2.86,17.89,0,4.94-7.48,0-10.33S932,361.05,927,363.91Z" transform="translate(-308.71 -60.67)"/><path class="cls-58" d="M402.06,675.55c-7.95,4.59-7.95,12,0,16.63s20.84,4.59,28.79,0,8-12,0-16.63S410,671,402.06,675.55Z" transform="translate(-308.71 -60.67)"/><path class="cls-59" d="M423.94,572.11c-4.94,2.85-4.94,7.48,0,10.34s12.95,2.85,17.89,0,4.94-7.49,0-10.34S428.88,569.26,423.94,572.11Z" transform="translate(-308.71 -60.67)"/><path class="cls-60" d="M753.1,404.72l.54,0a6.72,6.72,0,0,0-.26-1.35C753.17,402.68,753.11,404,753.1,404.72Z" transform="translate(-308.71 -60.67)"/><path class="cls-61" d="M741.67,409.79c-.42.1-.67.08-.54-.05s.46-.27,1-.19C742.31,409.58,742.1,409.68,741.67,409.79Z" transform="translate(-308.71 -60.67)"/><path class="cls-53" d="M544.76,632V621.26a9.8,9.8,0,0,1-.16,1.8c-1.56,8.72-14.35,15.54-29.85,15.54-16.05,0-29.18-7.29-30-16.44a5,5,0,0,1,0-.54V632c0,6.17,5.68,11.9,15,15a49.48,49.48,0,0,0,30.7-.21C539.36,643.59,544.76,638,544.76,632Z" transform="translate(-308.71 -60.67)"/><path class="cls-54" d="M484.93,619.21c.05-.16.17-.72.17-.72a11.25,11.25,0,0,1,.56-1.5v0a15.69,15.69,0,0,1,1.09-2,16,16,0,0,1,2.42-2.78c.14-.12.26-.25.38-.37a26.63,26.63,0,0,1,5.93-3.86.64.64,0,0,1,.18-.1c10.8-5.22,27.35-5.35,38.41.13a31.55,31.55,0,0,1,4.67,2.84,17.37,17.37,0,0,1,4.08,4.28,11.73,11.73,0,0,1,.77,1.35,12.66,12.66,0,0,1,.61,1.44,10,10,0,0,1,.52,4.25c0,.29-.07.59-.12.88-1.57,8.74-14.35,15.54-29.86,15.54-16,0-29.17-7.29-30-16.44A11.42,11.42,0,0,1,484.93,619.21Zm4.19,3.61v0a4.23,4.23,0,0,1,.05-.69c.68,7.21,10.34,13,22.61,13.85,1,.07,2,.11,3,.11,13.64,0,24.8-6.16,25.6-13.92a8.64,8.64,0,0,0,0-.88c0-8.18-11.49-14.8-25.64-14.8s-25.62,6.62-25.62,14.8A14.28,14.28,0,0,0,489.12,622.82Z" transform="translate(-308.71 -60.67)"/><path class="cls-55" d="M489.12,622.82v0a4.23,4.23,0,0,1,.05-.69c.68,7.21,10.34,13,22.61,13.85,1,.07,2,.11,3,.11,13.64,0,24.8-6.16,25.6-13.92a8.64,8.64,0,0,0,0-.88c0-8.18-11.49-14.8-25.64-14.8s-25.62,6.62-25.62,14.8A14.28,14.28,0,0,0,489.12,622.82Z" transform="translate(-308.71 -60.67)"/><path class="cls-62" d="M636.39,467a38.42,38.42,0,0,1-4.13,14.7,44,44,0,0,1-9.17,12.23c-3.88,3.39-8.59,5.7-13.13,8.18-6.86,3.71-13.22,7.68-19.82,11.64-1.69,1-110.35,63.76-112.16,64.5-9,3.79-15.7-1.65-15.7-11.89-.71-299.74-.32-243.46-.57-261.32-.09-13-.42-26.18-.25-39.23.08-8.67.12-15.89,0-24.65a102.14,102.14,0,0,1,.38-12.27,41.82,41.82,0,0,1,14.7-25.93,61.53,61.53,0,0,1,9.25-5.7c5.12-2.89,10.08-5.86,15-8.76,17.06-10,34-19.26,56.66-32.54,41.29-24.57,38.32-21.24,49.06-28.16,7.43-4.8,17.34-12.56,24.61-7.27,5.17,3.69,4.71,11.47,4.54,17.18-.27,8.3.43,6.59.09,37C635.66,188.83,636.6,462.52,636.39,467ZM530.83,182a1.29,1.29,0,0,0,.09.58c.08.25.08.41.25.5a.66.66,0,0,0,.33.33c1.09.54-.8,1.28,32.62-18a3.72,3.72,0,0,0,.58-.49,3.12,3.12,0,0,0,1-1.24c.85-1.27.66-2.07.66-4.63,0-.67-.11-1.21-.66-1.48a1,1,0,0,0-1-.09.91.91,0,0,0-.58.25c-4.87,2.92-31,17.71-31.63,18.34a3.7,3.7,0,0,0-1.32,2C530.69,178.79,530.83,180.15,530.83,182Z" transform="translate(-308.71 -60.67)"/><path class="cls-63" d="M563.71,158c-33.16,19.12-31.78,17.79-32.54,20.07a1.29,1.29,0,0,0-.25.74,2.12,2.12,0,0,0-.09.74v2c33.8-19.55,30.73-17.68,31.47-18.42a4.81,4.81,0,0,0,1.41-3.22Z" transform="translate(-308.71 -60.67)"/><path class="cls-64" d="M564.7,157.51a.91.91,0,0,0-.58.25l-.41.25c0,2.31,0,2.26-.17,3.05a5.22,5.22,0,0,1-2.15,2.81l-30.56,17.68V182a1.29,1.29,0,0,0,.09.58c.08.25.08.41.25.5a.66.66,0,0,0,.33.33c.41.2.26.16,1,.16.16-.08.41-.16.57-.25,31.73-18.31,32.14-18.18,32.63-19.65.87-1.31.66-2.3.66-4.63a2.25,2.25,0,0,0-.25-1.15A1.17,1.17,0,0,0,564.7,157.51Z" transform="translate(-308.71 -60.67)"/><path class="cls-65" d="M447.16,237c0,4.82,0,9.55,0,14.24,0,0,0,0,0,0,.21,99.73.37,167.9.47,214.54.27,113.26.3,99.39.56,101.77.6,3.89,2.94,8.44,6.36,10.41,0,0,9.44,5.26,8.06,3.88a.68.68,0,0,1-.12-.12,6,6,0,0,1-.65-.68,11.28,11.28,0,0,1-1.13-1.54,7.81,7.81,0,0,1-.46-.77,13.74,13.74,0,0,1-.68-1.45c-.21-.49-.38-1-.54-1.5-.09-.3-.18-.58-.25-.88,0-.12-.05-.26-.08-.38a26,26,0,0,1-.74-5.75v-.39L458,555l-.2-98.13-.43-222.07c0-14,9.5-31.5,22.54-39.14L617.31,116.3c6.18-3.63,11.72-3.74,15.74-1.73-1.17-.7-10.69-6.24-13.77-6.6-4.87-.56-8,.75-12.07,2.9L469.79,190.24c-6.43,3.6-12.74,13-17.06,23.24v0C449.32,221.6,447.16,230.25,447.16,237Z" transform="translate(-308.71 -60.67)"/><path class="cls-66" d="M479.88,195.67,617.31,116.3c6.25-3.67,11.84-3.73,15.86-1.65a.08.08,0,0,0,.08.08c4.77,2.12,6.69,9.16,6.69,14.62l.64,314.44h0v19.57c0,13.89-9.18,31.17-22.47,39.15L480.62,581.87c-11.64,6.82-22.35,2.22-22.63-13l-.66-334C457.33,220.87,466.76,203.35,479.88,195.67ZM461.71,305c.24,17-.13-37.06.57,261.32,0,10.22,6.69,15.69,15.7,11.89,1.76-.72,110.52-63.53,112.16-64.5,6.6-4,13-7.93,19.82-11.64,4.54-2.48,9.25-4.79,13.13-8.18a44,44,0,0,0,9.17-12.23,38.42,38.42,0,0,0,4.13-14.7c.2-4.15,0-2.37-.08-17.07h0c0-194.87-.64-261-.57-275.22.34-30.41-.36-28.7-.09-37,.14-4.64.48-9.68-1.73-13.87a9.07,9.07,0,0,0-5.78-4.71c-6.52-2.17-15.9,5-21.64,8.67-6,3.88-12.56,7.19-18.91,10.65-15.09,8.16-25.43,15.14-60.3,34.86-36.87,21-32.36,18.77-41.54,24-6.42,3.46-10.66,5.91-15.36,11.89a45.36,45.36,0,0,0-6.44,11.32c-2.76,7.58-2.7,12.89-2.53,20.69.17,8.76.13,16,0,24.65C461.29,278.84,461.62,292,461.71,305Z" transform="translate(-308.71 -60.67)"/><path class="cls-52" d="M383,467.9l-51.15,43.31a13.86,13.86,0,0,0,3.61,23.38c23.87,10,60.07,24.86,63.24,24.83a48.53,48.53,0,0,1,26.26,7.21C440,575.53,441.93,576,457,585c6.18,3.68,12.14,3,18.66-.86-5.7,1.73-10.06.59-13-2.22a.68.68,0,0,1-.12-.12,8.39,8.39,0,0,1-.65-.68,12.18,12.18,0,0,1-1.13-1.54c-.16-.25-.32-.51-.46-.77a13.74,13.74,0,0,1-.68-1.45c-.19-.46-.37-.93-.52-1.42,0,0,0,0,0-.08a8.47,8.47,0,0,1-.25-.88c0-.12-.05-.26-.08-.38a43.28,43.28,0,0,1-.74-6.12v0c-.38-6.34,0-13.42,0-13.42l-.2-98.13-.43-222.07s-.46,7.92-4.6-21.31c-3.41,8.1-5.57,16.75-5.57,23.52,0,4.82,0,9.55,0,14.24,0,0,0,0,0,0a.65.65,0,0,1,0,.18l.43,214.36s-31.29.62-47.11.36C394.46,466.09,383,467.9,383,467.9Z" transform="translate(-308.71 -60.67)"/><path class="cls-54" d="M667.59,116c7.37,7.11,12.15,14.39,11.3,16.92a1.29,1.29,0,0,1-.8.86H678a2.48,2.48,0,0,1-1.12.06c-2.65-.31-5.85-2.46-8-3.95-9.64-6.63-21.17-20.25-19.43-24a1.37,1.37,0,0,1,.47-.53c.06,0,.06-.06.11-.07s.17-.08.23-.08C652.9,104.49,660.22,108.93,667.59,116Z" transform="translate(-308.71 -60.67)"/><path class="cls-53" d="M654.74,100.66c1.23-1.27,4.87,0,9.69,3.34a71.32,71.32,0,0,1,14,13.11c4.52,5.52,6.49,10,5.1,11.35l-5,5a1.38,1.38,0,0,0,.3-.51c.84-2.59-3.93-9.81-11.3-16.92s-14.69-11.55-17.27-10.67l-.34.15C649.8,105.54,648.79,106.6,654.74,100.66Z" transform="translate(-308.71 -60.67)"/><path class="cls-53" d="M435.6,280.25c-4.7-.9-7.59-2.67-7.81-4.77l-.66-6.62a2.59,2.59,0,0,0,.18.66c1.36,3.3,10,5.23,20.18,4.3s18.42-4.33,19.12-7.87c.11-.27-.12-2.9.57,6,.26,3.28-6,6.74-15.06,8.22A48.77,48.77,0,0,1,435.6,280.25Z" transform="translate(-308.71 -60.67)"/><path class="cls-54" d="M466.65,266c-.69,3.54-8.92,7-19.12,7.87s-18.81-1-20.18-4.31c-1-2.73,2.7-4.95,5.38-6.12,6.32-2.71,15.49-3.76,21.79-3.26,3.23.19,7.52.85,10.23,2.54a3.91,3.91,0,0,1,1.93,2.39A4.42,4.42,0,0,1,466.65,266Z" transform="translate(-308.71 -60.67)"/><path class="cls-55" d="M431.54,269.46a4.69,4.69,0,0,1-1.48-.92c.24-.42,1.26-1.39,3.81-2.51,6-2.58,14.83-3.47,20.42-3a25,25,0,0,1,8,1.62,6.34,6.34,0,0,1,.94.47,3.7,3.7,0,0,1,.54.45c-.74,1.31-6.18,4.51-16.49,5.42C440.92,271.56,434.87,271,431.54,269.46Z" transform="translate(-308.71 -60.67)"/><path class="cls-53" d="M849.44,313.93c-3.74-3-5.46-5.92-4.67-7.87l2.51-6.17a2.69,2.69,0,0,0-.15.67c-.34,3.55,6.42,9.31,15.82,13.24s18.32,4.79,20.59,2c.22-.17,1.25-2.62-2.31,5.58-1.3,3-8.47,3.14-17.15.22A49.12,49.12,0,0,1,849.44,313.93Z" transform="translate(-308.71 -60.67)"/><path class="cls-54" d="M883.57,315.82c-2.27,2.81-11.14,2-20.58-2s-16.17-9.69-15.83-13.24c.36-2.9,4.71-3.13,7.63-2.9,6.85.56,15.44,3.91,20.77,7.31,2.77,1.67,6.25,4.26,7.86,7a3.87,3.87,0,0,1,.58,3A4.45,4.45,0,0,1,883.57,315.82Z" transform="translate(-308.71 -60.67)"/><path class="cls-55" d="M850.9,302.49A4.75,4.75,0,0,1,850,301c.41-.26,1.76-.64,4.55-.43,6.51.52,14.73,3.86,19.45,6.87a24.93,24.93,0,0,1,6.28,5.16,7.36,7.36,0,0,1,.62.86,5.38,5.38,0,0,1,.26.65c-1.27.8-7.57,1.09-17.11-2.92C858.21,308.74,853.14,305.37,850.9,302.49Z" transform="translate(-308.71 -60.67)"/><path class="cls-54" d="M589.17,66.53c-.14,1.44-9.29,1.5-15.34.22-2.41-.52-3.81-1.13-3.76-1.7.39-4.07.31-3.34.33-3.3.19.89,4.31,1.9,9.41,2.3s9.32,0,9.66-.76C589.51,63.2,589.56,62.59,589.17,66.53Z" transform="translate(-308.71 -60.67)"/><path class="cls-54" d="M570.4,61.69c.05-.62,2.21-.87,2.85-.91a42.74,42.74,0,0,1,5.77,0c.42,0,2.06.15,2.45.21a33,33,0,0,1,6.47,1.2c.43.16,1.63.55,1.59,1,0,0,0,0,0,.07-.33.84-4.56,1.19-9.66.79s-9.27-1.42-9.46-2.28A.1.1,0,0,1,570.4,61.69Z" transform="translate(-308.71 -60.67)"/><path class="cls-55" d="M588,63.08a42.25,42.25,0,0,1-16-1.26,9.37,9.37,0,0,1,1.38-.2,41.91,41.91,0,0,1,5.65,0c.42,0,2,.14,2.37.19h0a34.43,34.43,0,0,1,6.3,1.17h0Z" transform="translate(-308.71 -60.67)"/><path class="cls-54" d="M424.93,415.57c-.41,17.4-17.66,33.63-41.45,33.69-20.33.06-40-12.6-41.66-32.4a29.45,29.45,0,0,1,.23-6.35,28.36,28.36,0,0,1,2.42-8.13,33.66,33.66,0,0,1,8.33-11.17A45.64,45.64,0,0,1,383.23,380h.08c21.55-.12,41,14,41.77,33.39C425,414.1,425,415,424.93,415.57Z" transform="translate(-308.71 -60.67)"/><path class="cls-55" d="M387.92,440.59a43.55,43.55,0,0,1-4.44.26c-15.24,0-31.87-9.09-33.26-24.6a21.82,21.82,0,0,1,.14-4.41l0-.16A20.76,20.76,0,0,1,352,406a26.82,26.82,0,0,1,6.32-8.48,36.5,36.5,0,0,1,20.37-8.79c.92-.1,1.91-.2,2.83-.23l.32.12,1.67-.18c17.57.09,32.28,11.36,32.88,25.33,0,.55,0,1.08,0,1.32l0,.15c-.15,5.65-2.85,11.34-7.73,16C403.49,436.43,396.07,439.7,387.92,440.59Z" transform="translate(-308.71 -60.67)"/><path class="cls-53" d="M342.08,423.46l-.29-6.83s.08.68.14,1.22c0,.15,0,.38.05.53,2.22,17.42,20,31,41.5,30.87s39.37-13.94,41.31-31.5c-.87,9.73-.63,6.93-.65,7.47-1.3,14.95-14,27.53-31.58,31.06C367.09,461.38,342.39,445.41,342.08,423.46Z" transform="translate(-308.71 -60.67)"/><path class="cls-54" d="M489.46,121.32c-.31,13.47-13.67,26-32.08,26.07-15.73.05-31-9.75-32.24-25.07a22.62,22.62,0,0,1,.18-4.92,21.91,21.91,0,0,1,1.87-6.29,26.19,26.19,0,0,1,6.45-8.65,35.38,35.38,0,0,1,23.55-8.66h.06c16.68-.09,31.7,10.86,32.33,25.84C489.52,120.18,489.53,120.84,489.46,121.32Z" transform="translate(-308.71 -60.67)"/><path class="cls-55" d="M460.82,140.69a32.7,32.7,0,0,1-3.43.19c-11.8,0-24.67-7-25.75-19a15.94,15.94,0,0,1,.11-3.41l0-.12a16.09,16.09,0,0,1,1.31-4.44,20.88,20.88,0,0,1,4.88-6.56,28.29,28.29,0,0,1,15.77-6.8c.71-.07,1.47-.16,2.19-.18l.25.1,1.29-.14c13.6.06,25,8.79,25.45,19.6,0,.42,0,.83,0,1V121a17.85,17.85,0,0,1-6,12.35A26.52,26.52,0,0,1,460.82,140.69Z" transform="translate(-308.71 -60.67)"/><path class="cls-53" d="M425.34,127.43l-.22-5.29s.06.53.1.94c0,.12,0,.3,0,.42,1.71,13.48,15.49,24,32.11,23.89s30.47-10.79,32-24.39c-.67,7.54-.49,5.37-.5,5.79-1,11.57-10.85,21.3-24.44,24C444.7,156.77,425.58,144.41,425.34,127.43Z" transform="translate(-308.71 -60.67)"/><path class="cls-53" d="M821.19,199.92l-.25.49c-3.44,6.64-14.78,13.13-21.53,16.27-12.63,5.94-27.87,9.84-38.61,10.47a45.27,45.27,0,0,1-13.74-.74,13.74,13.74,0,0,1-4-1.57,6.49,6.49,0,0,1-3.25-3.66,3.18,3.18,0,0,1-.19-1c-.84-7.71,15.12-19.19,36.74-26.11s41-6.8,45-.13A6.11,6.11,0,0,1,821.19,199.92Z" transform="translate(-308.71 -60.67)"/><path class="cls-54" d="M776.26,194.08c-21.71,6.93-37.6,18.33-36.74,26.12.08.77,1.36,4.72-4-13.09C734.1,202.4,739.18,196,749,189.87s23.39-11.21,36.32-13.63c16.95-3.16,29.58-1.22,31.63,4.82l4.76,13.85v-.07c-.11-.3-.31-.66-.41-.89C817.34,187.28,797.81,187.25,776.26,194.08Z" transform="translate(-308.71 -60.67)"/><path class="cls-67" d="M477,449.15V481c11.62,6.7,2.13,1.2,9.51,5.47V454.63C479.09,450.36,488.62,455.88,477,449.15Z" transform="translate(-308.71 -60.67)"/><path class="cls-68" d="M477,449.15c11.62,6.7,2.13,1.21,9.51,5.48l135.19-78.05c-7.49-4.32,2,1.18-9.52-5.48Z" transform="translate(-308.71 -60.67)"/><path class="cls-66" d="M486.46,454.63V486.5l135.19-78V376.58Zm8.26,17.58V459.39l112.81-65.13,5.86-3.39v12.82Z" transform="translate(-308.71 -60.67)"/><polygon class="cls-69" points="186.01 404.76 186.01 411.54 304.68 343.01 298.82 339.63 186.01 404.76"/><polygon class="cls-70" points="186.01 398.72 186.01 404.76 298.82 339.63 298.82 333.59 186.01 398.72"/><polygon class="cls-71" points="298.82 333.59 298.82 339.63 304.68 343.01 304.68 330.2 298.82 333.59"/><g class="cls-72"><path class="cls-61" d="M744.77,597.4c0,.49-24.93,15.38-55.4,33.09L634,662.7l-4-3.41-4-3.42,6.41.38,6.42.38,51.77-30.06c28.48-16.53,52.33-30.05,53-30.05S744.77,596.91,744.77,597.4Z" transform="translate(-308.71 -60.67)"/><path class="cls-61" d="M505.54,615.6c3.21.62,6.55,1.25,10.05,1.89,43.6,8,65.42,15.33,80.47,22a67.27,67.27,0,0,0,6.71,2.74c.3,0-1.61-2.33-4.26-5.18-13.78-14.83-25.43-43.6-40-98.83-8.81-33.41-16.24-50.43-27.08-62.1-7.73-8.31-15.19-12.84-23.6-13.3-7.76-.42-17.42-1.26-20.09,22.86C486.55,496.44,468.88,608.48,505.54,615.6Z" transform="translate(-308.71 -60.67)"/></g><path class="cls-73" d="M614.42,403.49,516,460.31a32.17,32.17,0,0,1,5.74,1.28l98.41-56.82A33.59,33.59,0,0,0,614.42,403.49Z" transform="translate(-308.71 -60.67)"/><path class="cls-73" d="M627,407.79l-98.42,56.82a39.81,39.81,0,0,1,5.74,4l98.42-56.82A42.05,42.05,0,0,0,627,407.79Z" transform="translate(-308.71 -60.67)"/><path class="cls-73" d="M639.53,418.79l-98.41,56.82a74.76,74.76,0,0,1,5.74,8.11l98.41-56.82A69.87,69.87,0,0,0,639.53,418.79Z" transform="translate(-308.71 -60.67)"/><path class="cls-73" d="M652.09,440q-49.22,28.41-98.42,56.82c1.79,4,3.85,9.29,5.74,15L657.83,455C656.15,449.91,654.31,445,652.09,440Z" transform="translate(-308.71 -60.67)"/><path class="cls-73" d="M664.64,479.38l-98.41,56.83c1.71,6.65,3.56,13.55,5.74,21.1l98.42-56.82C668.45,493.78,666.37,486.06,664.64,479.38Z" transform="translate(-308.71 -60.67)"/><path class="cls-73" d="M677.2,522.45l-98.42,56.82c1.78,5.3,3.66,10.55,5.75,15.91l98.41-56.82C681.18,533.85,679.2,528.39,677.2,522.45Z" transform="translate(-308.71 -60.67)"/><path class="cls-74" d="M752.31,591.52q-22.83,2.36-42.56-21.07t-39.3-101.69q-19.58-78.27-62.08-68.83l-113.26,65.4q42.5-9.45,62.07,68.82t39.3,101.7q19.74,23.43,42.56,21.07ZM516,460.31l98.41-56.82a33.59,33.59,0,0,1,5.74,1.28l-98.41,56.82A32.17,32.17,0,0,0,516,460.31Zm12.55,4.3L627,407.79a42.05,42.05,0,0,1,5.74,4L534.3,468.65A39.81,39.81,0,0,0,528.56,464.61Zm12.56,11,98.41-56.82a69.87,69.87,0,0,1,5.74,8.11l-98.41,56.82A74.76,74.76,0,0,0,541.12,475.61Zm12.55,21.2q49.22-28.4,98.42-56.82c2.22,5,4.06,9.92,5.74,15L559.41,511.8C557.52,506.1,555.46,500.84,553.67,496.81Zm12.56,39.4,98.41-56.83c1.73,6.68,3.81,14.4,5.75,21.11L572,557.31C569.79,549.76,567.94,542.86,566.23,536.21Zm12.55,43.06,98.42-56.82c2,5.94,4,11.4,5.74,15.91l-98.41,56.82C582.44,589.82,580.56,584.57,578.78,579.27Z" transform="translate(-308.71 -60.67)"/><path class="cls-75" d="M598.43,603.51l-8.5,4.91c6.93,14.89,12.46,22.08,19,28.54,8,7.92,17.45,13.93,28.52,15.28l8.5-4.91c-13.68-1.66-24.85-10.44-33.75-21C606.65,619.86,602,611.25,598.43,603.51Z" transform="translate(-308.71 -60.67)"/><path class="cls-75" d="M606.49,598.86l-3.87,2.23c6.92,14.9,12.45,22.09,19,28.54,8,7.93,17.44,13.94,28.52,15.29l3.88-2.24c-13.68-1.67-24.86-10.45-33.75-21C614.72,615.2,610.09,606.59,606.49,598.86Z" transform="translate(-308.71 -60.67)"/><path class="cls-75" d="M612.84,595.19,609,597.43c6.93,14.89,12.46,22.09,19,28.54,8,7.92,17.45,13.94,28.52,15.29q1.93-1.12,3.88-2.24c-13.68-1.67-24.86-10.45-33.75-21C621.06,611.54,616.44,602.93,612.84,595.19Z" transform="translate(-308.71 -60.67)"/><path class="cls-75" d="M619.18,591.53l-2.59,1.5c6.93,14.89,12.46,22.08,19,28.53,8,7.93,17.45,13.94,28.52,15.29l2.59-1.49c-13.67-1.67-24.85-10.45-33.75-21C627.41,607.87,622.78,599.27,619.18,591.53Z" transform="translate(-308.71 -60.67)"/><path class="cls-75" d="M625.53,587.87l-3,1.71c6.92,14.89,12.46,22.09,19,28.54,8,7.92,17.45,13.94,28.52,15.29l3-1.72c-13.67-1.67-24.85-10.44-33.75-21C633.75,604.21,629.13,595.61,625.53,587.87Z" transform="translate(-308.71 -60.67)"/><path class="cls-75" d="M631.87,584.21,628,586.45c6.93,14.89,12.46,22.08,19,28.53,8,7.92,17.45,13.94,28.52,15.29l3.88-2.24c-13.68-1.67-24.86-10.44-33.75-21C640.1,600.55,635.46,591.94,631.87,584.21Z" transform="translate(-308.71 -60.67)"/><path class="cls-75" d="M638.21,580.55l-3.88,2.23c6.93,14.89,12.46,22.08,19,28.54,8,7.92,17.44,13.93,28.51,15.28l3.88-2.23c-13.68-1.67-24.85-10.45-33.75-21C646.44,596.89,641.81,588.28,638.21,580.55Z" transform="translate(-308.71 -60.67)"/><path class="cls-75" d="M646.56,575.73l-5.88,3.39c6.92,14.89,12.46,22.08,19,28.54,8,7.92,17.44,13.93,28.52,15.28l5.88-3.39c-13.68-1.67-24.86-10.44-33.76-21C654.78,592.07,650.15,583.46,646.56,575.73Z" transform="translate(-308.71 -60.67)"/><path class="cls-75" d="M650.9,573.22l-2.43,1.4c6.92,14.89,12.46,22.09,19,28.54,8,7.93,17.45,13.94,28.52,15.29l2.43-1.41c-13.68-1.66-24.86-10.44-33.75-21C659.12,589.56,654.5,581,650.9,573.22Z" transform="translate(-308.71 -60.67)"/><path class="cls-75" d="M656.49,570l-3.12,1.8c6.92,14.9,12.45,22.09,19,28.55,8,7.92,17.44,13.93,28.52,15.28l3.12-1.81c-13.68-1.66-24.85-10.44-33.75-21C664.71,586.33,660.09,577.73,656.49,570Z" transform="translate(-308.71 -60.67)"/><path class="cls-75" d="M663.58,565.89l-3.87,2.25c6.92,14.89,12.46,22.08,19,28.53,8,7.92,17.45,13.94,28.52,15.29q1.93-1.12,3.88-2.24c-13.68-1.67-24.86-10.45-33.75-21C671.81,582.24,667.18,573.63,663.58,565.89Z" transform="translate(-308.71 -60.67)"/><path class="cls-75" d="M669.05,562.74l-3,1.73c6.93,14.89,12.46,22.08,19,28.54,8,7.92,17.45,13.93,28.52,15.28l3-1.72c-13.67-1.67-24.85-10.45-33.75-21C677.27,579.08,672.64,570.48,669.05,562.74Z" transform="translate(-308.71 -60.67)"/><path class="cls-75" d="M676.27,558.57l-3.88,2.24c6.93,14.89,12.46,22.08,19,28.54,8,7.92,17.45,13.93,28.52,15.28q1.95-1.11,3.88-2.24c-13.67-1.66-24.85-10.44-33.75-21C684.5,574.91,679.87,566.31,676.27,558.57Z" transform="translate(-308.71 -60.67)"/><path class="cls-75" d="M682.62,554.91l-2.61,1.5c6.92,14.9,12.46,22.09,19,28.54,8,7.93,17.45,13.94,28.52,15.29l2.61-1.51c-13.68-1.67-24.86-10.44-33.76-21C690.84,571.25,686.21,562.64,682.62,554.91Z" transform="translate(-308.71 -60.67)"/><path class="cls-75" d="M689,551.25l-3.88,2.23c6.92,14.89,12.46,22.08,19,28.55,8,7.91,17.45,13.93,28.52,15.27l3.88-2.23c-13.68-1.67-24.86-10.44-33.75-21C697.19,567.59,692.56,559,689,551.25Z" transform="translate(-308.71 -60.67)"/><polygon class="cls-76" points="301.38 257.79 301.38 263.83 307.24 267.21 307.24 254.4 301.38 257.79"/><path class="cls-66" d="M489,378.83V410.7l135.19-78V300.78Zm8.26,17.58V383.59l112.81-65.13,5.86-3.39v12.82Z" transform="translate(-308.71 -60.67)"/><polygon class="cls-77" points="188.57 328.96 188.57 335.74 307.24 267.21 301.38 263.83 188.57 328.96"/><polygon class="cls-70" points="188.57 322.92 188.57 328.96 301.38 263.83 301.38 257.79 188.57 322.92"/><polygon class="cls-78" points="162.47 310.21 162.47 314.92 163.59 315.57 169.43 318.94 177.52 323.62 177.64 323.69 324.79 408.63 324.79 403.37 162.96 309.93 162.95 309.93 162.47 310.21"/><path class="cls-79" d="M471.67,370.6,593.55,441l40,23.07a19.87,19.87,0,0,0,17.86,0l48-27.72,45.21-26.1c2.2-1.27,3.43-2.9,3.64-4.56a4.33,4.33,0,0,0-.32-2.38,7.35,7.35,0,0,0-.56-1,4.85,4.85,0,0,0-.56-.69l-.29-.31a6.86,6.86,0,0,0-.69-.59c-.24-.18-.49-.37-.77-.54s-.3-.18-.45-.28l-93.72-54.08L597.43,315h0l-8.19-4.73-5.83-3.37-.64-.37-11.63,6.71Z" transform="translate(-308.71 -60.67)"/><path class="cls-80" d="M633.5,464v5.27a19.68,19.68,0,0,0,17.85,0V464a19.68,19.68,0,0,1-17.85,0Z" transform="translate(-308.71 -60.67)"/><polygon class="cls-81" points="342.64 403.37 342.64 408.63 435.88 354.81 435.88 349.55 342.64 403.37"/><path class="cls-82" d="M748.24,405.66c-.23,1.67-1.45,3.29-3.65,4.56v5.26c2.37-1.36,3.7-3.21,3.7-5.15v-5.26A3,3,0,0,1,748.24,405.66Z" transform="translate(-308.71 -60.67)"/><path class="cls-54" d="M524.13,346.25,516,351a8.15,8.15,0,0,0-.72.47,5.47,5.47,0,0,0-.94.82c-1.79,1.9-1.44,4.23,1.15,5.73l17.17,9.91c2.59,1.49,6.62,1.69,9.92.66A10.29,10.29,0,0,0,544,368a9,9,0,0,0,.82-.42l8.13-4.69a7,7,0,0,0,1.49-1.11,4.2,4.2,0,0,0,.75-.93c1.09-1.73.53-3.67-1.73-5L536.29,346a12.93,12.93,0,0,0-8.64-1,10.35,10.35,0,0,0-1.59.44A10.17,10.17,0,0,0,524.13,346.25Z" transform="translate(-308.71 -60.67)"/><path class="cls-83" d="M526.06,345.4l28.37,16.38a4.2,4.2,0,0,0,.75-.93L527.65,345A10.35,10.35,0,0,0,526.06,345.4Z" transform="translate(-308.71 -60.67)"/><path class="cls-83" d="M515.28,351.42a5.47,5.47,0,0,0-.94.82l28.24,16.3A10.29,10.29,0,0,0,544,368Z" transform="translate(-308.71 -60.67)"/><path class="cls-83" d="M524.55,355.12l6.83-3.92c3.84-2.23,9.86-2.37,13.41-.33s3.29,5.53-.57,7.74l-6.81,3.94a14.79,14.79,0,0,1-7.47,1.77,12.48,12.48,0,0,1-5.94-1.44C520.44,360.83,520.71,357.36,524.55,355.12Zm.38,7.22a10.71,10.71,0,0,0,5.15,1.25,13.1,13.1,0,0,0,6.48-1.53l6.81-3.93c3.35-1.94,3.57-4.95.49-6.71s-8.29-1.66-11.63.28l-6.82,3.92C522.07,357.56,521.85,360.57,524.93,362.34Z" transform="translate(-308.71 -60.67)"/><path class="cls-84" d="M564.11,323.84c0-.09.1-.19.29-.3l1.2-.7,2.46,1.42.87-.51-2.45-1.41,2.71-1.57-1.14-.65L563,323c-.39.23-.57.47-.54.73s.24.52.65.75c.6.36,1.12.65,1.53.87s.82.44,1.2.62l.8-.53-2.26-1.31Q564.11,324,564.11,323.84Z" transform="translate(-308.71 -60.67)"/><path class="cls-84" d="M568,327.07l.5-.29q.32-.18,0-.36l-.51-.29a.56.56,0,0,0-.63,0l-.5.28q-.15.09-.15.18c0,.07,0,.13.15.19l.51.29A.6.6,0,0,0,568,327.07Zm6-3.49L573,323l-4.42,2.55,1.09.63Z" transform="translate(-308.71 -60.67)"/><path class="cls-84" d="M573.75,328.66l.92-.66-.32-.18a2.5,2.5,0,0,1-.51-.4,6.72,6.72,0,0,1-.56-.67l3.13-1.81-1.1-.63-4.43,2.55.86.5.75-.32a2.08,2.08,0,0,0,.35.87,2.14,2.14,0,0,0,.7.63Z" transform="translate(-308.71 -60.67)"/><path class="cls-84" d="M577.13,330.55c.4.2.75.36,1.06.49l.67-.49c-.77-.42-1.34-.73-1.72-.95l-.59-.36q-.16-.12-.15-.21c0-.06.06-.12.18-.19a.7.7,0,0,1,.39-.12,1.55,1.55,0,0,1,.39.09l.3.1,1.52.5a3.74,3.74,0,0,0,1.25.22,2.36,2.36,0,0,0,1.08-.35c.35-.2.56-.4.61-.58a.58.58,0,0,0-.23-.59,5.71,5.71,0,0,0-1-.72,18.41,18.41,0,0,0-2-1l-.7.49c.34.16.85.45,1.54.85a6.4,6.4,0,0,1,.71.44c.14.11.22.2.23.27s0,.15-.17.22a.66.66,0,0,1-.31.1,1.14,1.14,0,0,1-.28,0l-.54-.17-1.48-.49a3.29,3.29,0,0,0-1.27-.2,2.54,2.54,0,0,0-1.07.35,1.24,1.24,0,0,0-.57.54.53.53,0,0,0,.18.55,4.11,4.11,0,0,0,1,.68C576.38,330.17,576.73,330.36,577.13,330.55Z" transform="translate(-308.71 -60.67)"/><path class="cls-84" d="M581.55,332.1l2.24-1.3a1.1,1.1,0,0,1,.52-.16,1.12,1.12,0,0,1,.53.17l.61.35.93-.4a3.3,3.3,0,0,0-.45-.39,5,5,0,0,0-.54-.36,2.39,2.39,0,0,0-1.22-.32,2.66,2.66,0,0,0-1.27.38l-2.45,1.4-.79-.46-.75.43.75.49-1.27.73,1.09.63,1.27-.73,1.3.75.8-.46Z" transform="translate(-308.71 -60.67)"/><path class="cls-84" d="M594,335.6q.42-.24,0-.48l-.89-.52a.89.89,0,0,0-.37-.12,1.42,1.42,0,0,0-.44,0l-5.58,1.19-.68.15a5.49,5.49,0,0,0-.62.18l-.1-.07a7.87,7.87,0,0,0,1-.51l4.15-2.4-1.11-.64-5.81,3.36c-.14.08-.2.16-.2.24s.07.16.21.25l.87.5a.85.85,0,0,0,.37.12,1.58,1.58,0,0,0,.45,0l5.4-1.16.48-.11c.29-.05.6-.12.94-.21l.11.07c-.41.2-.76.38-1.06.55l-4,2.33,1.1.63Z" transform="translate(-308.71 -60.67)"/><path class="cls-84" d="M595,340.53a3,3,0,0,0,1.61-.46l3-1.74-.86-.5-.79.32a1.29,1.29,0,0,0-.18-.73,1.85,1.85,0,0,0-.74-.69,2.8,2.8,0,0,0-1.35-.38,2.33,2.33,0,0,0-1.33.32l-.45.26c-.36.2-.52.43-.48.67s.26.48.67.72l1.67,1-.27.16a1.48,1.48,0,0,1-.47.18.8.8,0,0,1-.43,0,2.37,2.37,0,0,1-.55-.26c-.46-.26-1-.64-1.76-1.12l-.88.39a10.91,10.91,0,0,0,1,.74c.39.27.73.5,1,.66A3.55,3.55,0,0,0,595,340.53Zm.86-3.31a1.34,1.34,0,0,1,.57.18,1.69,1.69,0,0,1,.49.44,1.31,1.31,0,0,1,.28.61l-.68.4L595.1,338c-.17-.11-.25-.2-.23-.29s.1-.18.25-.27l.18-.1A1.05,1.05,0,0,1,595.85,337.22Z" transform="translate(-308.71 -60.67)"/><path class="cls-84" d="M603,345.16a2.51,2.51,0,0,0,1.22-.35l3.32-1.92-1.07-.62-3,1.73a1.6,1.6,0,0,1-.61.2,1,1,0,0,1-.57-.16,1,1,0,0,1-.39-.35,3.28,3.28,0,0,1-.27-.64l3.09-1.79-1.06-.61-3,1.73a1.2,1.2,0,0,1-.61.21,1.08,1.08,0,0,1-.57-.16,1,1,0,0,1-.37-.35,3.08,3.08,0,0,1-.29-.64l3.1-1.79L600.8,339l-4.43,2.56.89.51.73-.33a1.81,1.81,0,0,0,.27.83,1.86,1.86,0,0,0,.68.61,2.26,2.26,0,0,0,1.86.23,1.74,1.74,0,0,0,.94,1.39A2.36,2.36,0,0,0,603,345.16Z" transform="translate(-308.71 -60.67)"/><path class="cls-84" d="M611.54,346.26l.8-.35a2.26,2.26,0,0,0-.6-.61,9.86,9.86,0,0,0-.92-.62,5.25,5.25,0,0,0-1.53-.61,3.5,3.5,0,0,0-1.44,0,5.58,5.58,0,0,0-1.57.65,3.44,3.44,0,0,0-1.16.93.7.7,0,0,0,0,.81,2.78,2.78,0,0,0,1,.84A4.48,4.48,0,0,0,608,348a2.92,2.92,0,0,0,1.63-.39c.85-.49.87-1,.09-1.41l-1.81-1.05a2.62,2.62,0,0,1,.78-.24,1.57,1.57,0,0,1,.65,0,3.16,3.16,0,0,1,.72.33A15.61,15.61,0,0,1,611.54,346.26Zm-5.06.19a.35.35,0,0,1,0-.39,2.35,2.35,0,0,1,.61-.48l1.52.88c.16.09.22.18.17.27a.76.76,0,0,1-.29.26,1.16,1.16,0,0,1-.69.18,2.15,2.15,0,0,1-.83-.31A1.65,1.65,0,0,1,606.48,346.45Z" transform="translate(-308.71 -60.67)"/><path class="cls-84" d="M615.37,349.11a1,1,0,0,1,.52-.16,1.16,1.16,0,0,1,.53.17l2.16,1.26.92-.48c-.53-.38-1.33-.87-2.39-1.48a2.52,2.52,0,0,0-2.69-.06l-5,2.86,1.13.65Z" transform="translate(-308.71 -60.67)"/><path class="cls-84" d="M619.57,354.72a3,3,0,0,0,1.6-.46l3-1.74-.87-.5-.78.32a1.29,1.29,0,0,0-.18-.73,1.85,1.85,0,0,0-.74-.69,2.93,2.93,0,0,0-1.35-.39,2.47,2.47,0,0,0-1.34.33l-.45.26c-.35.2-.51.43-.47.67s.26.48.67.72l1.66,1-.27.16a1.4,1.4,0,0,1-.47.18,1,1,0,0,1-.42,0,2.62,2.62,0,0,1-.55-.26c-.47-.26-1-.64-1.76-1.12l-.89.39c.26.22.59.47,1,.74s.73.49,1,.66A3.51,3.51,0,0,0,619.57,354.72Zm.85-3.31a1.34,1.34,0,0,1,.57.18,1.72,1.72,0,0,1,.5.44,1.42,1.42,0,0,1,.28.61l-.69.4-1.41-.81c-.16-.11-.24-.2-.23-.29s.1-.18.26-.27l.17-.1A1.08,1.08,0,0,1,620.42,351.41Z" transform="translate(-308.71 -60.67)"/><path class="cls-84" d="M623.47,357.3c.39.2.75.36,1,.49l.68-.49c-.77-.41-1.35-.73-1.72-.95a6,6,0,0,1-.59-.36c-.11-.08-.16-.15-.16-.21s.07-.12.19-.19a.69.69,0,0,1,.39-.11,1.5,1.5,0,0,1,.39.08l.3.1,1.52.5a3.7,3.7,0,0,0,1.25.22,2.41,2.41,0,0,0,1.08-.34c.35-.21.56-.4.61-.59a.6.6,0,0,0-.23-.59,6.09,6.09,0,0,0-1.05-.72,17.66,17.66,0,0,0-2-1l-.69.49c.33.17.85.45,1.54.85.33.19.56.33.71.44s.22.2.22.28,0,.14-.16.21a.66.66,0,0,1-.32.1,1.12,1.12,0,0,1-.27,0l-.54-.17-1.48-.49a3.53,3.53,0,0,0-1.27-.2,2.69,2.69,0,0,0-1.07.35,1.23,1.23,0,0,0-.58.55.53.53,0,0,0,.19.55,4.62,4.62,0,0,0,.94.67C622.71,356.92,623.07,357.11,623.47,357.3Z" transform="translate(-308.71 -60.67)"/><path class="cls-84" d="M627.88,358.85l2.25-1.3a1.06,1.06,0,0,1,.52-.16,1.16,1.16,0,0,1,.53.17l.6.35.93-.4a2.63,2.63,0,0,0-.44-.39l-.54-.35a2.23,2.23,0,0,0-1.22-.32,2.49,2.49,0,0,0-1.27.37l-2.45,1.4-.8-.46-.75.44.76.48-1.28.74,1.09.63,1.28-.74,1.3.75.79-.46Z" transform="translate(-308.71 -60.67)"/><path class="cls-84" d="M640.37,362.35q.42-.24,0-.48l-.9-.52a.85.85,0,0,0-.37-.12,1.48,1.48,0,0,0-.44,0l-5.57,1.19-.69.16a3.92,3.92,0,0,0-.61.17l-.11-.06a11,11,0,0,0,1-.52l4.15-2.39-1.11-.64-5.82,3.35c-.13.08-.19.16-.19.24s.06.17.2.25l.88.5a.85.85,0,0,0,.36.12,1.87,1.87,0,0,0,.45,0l5.41-1.17.48-.11c.29-.05.6-.12.94-.2l.11.06c-.41.2-.77.39-1.06.56l-4,2.32,1.1.64Z" transform="translate(-308.71 -60.67)"/><path class="cls-84" d="M641.33,367.28a2.87,2.87,0,0,0,1.6-.46l3-1.73-.87-.5-.78.31a1.25,1.25,0,0,0-.18-.72,1.72,1.72,0,0,0-.74-.69,2.93,2.93,0,0,0-1.35-.39,2.47,2.47,0,0,0-1.34.32l-.45.26c-.35.2-.51.43-.48.67s.27.49.68.73l1.66,1-.27.15a1.48,1.48,0,0,1-.47.18.77.77,0,0,1-.42,0,2.51,2.51,0,0,1-.55-.25c-.47-.27-1-.64-1.76-1.12l-.89.38c.26.22.59.47,1,.74a10.52,10.52,0,0,0,1,.66A3.51,3.51,0,0,0,641.33,367.28Zm.85-3.3a1.2,1.2,0,0,1,.57.17,1.89,1.89,0,0,1,.5.44,1.45,1.45,0,0,1,.28.62l-.69.39-1.41-.81c-.16-.11-.24-.2-.23-.29s.1-.18.26-.27l.17-.1A1,1,0,0,1,642.18,364Z" transform="translate(-308.71 -60.67)"/><path class="cls-84" d="M649.29,371.91a2.44,2.44,0,0,0,1.22-.35l3.32-1.92-1.07-.62-3,1.73a1.51,1.51,0,0,1-.62.21,1.27,1.27,0,0,1-.95-.51,2.64,2.64,0,0,1-.27-.65L651,368l-1-.61-3,1.72a1.37,1.37,0,0,1-.62.22,1.13,1.13,0,0,1-.56-.17,1.06,1.06,0,0,1-.38-.34,3.32,3.32,0,0,1-.28-.65l3.09-1.79-1.09-.63-4.42,2.56.89.51.72-.33a1.94,1.94,0,0,0,.28.83,1.82,1.82,0,0,0,.67.61,2.28,2.28,0,0,0,1.87.23,1.74,1.74,0,0,0,.94,1.4A2.42,2.42,0,0,0,649.29,371.91Z" transform="translate(-308.71 -60.67)"/><path class="cls-84" d="M657.87,373l.81-.35a2.67,2.67,0,0,0-.61-.61,6.67,6.67,0,0,0-.92-.61,4.78,4.78,0,0,0-1.52-.61,3.33,3.33,0,0,0-1.44,0,5.94,5.94,0,0,0-1.58.65,3.67,3.67,0,0,0-1.16.93.69.69,0,0,0,0,.81,2.73,2.73,0,0,0,1,.84,4.56,4.56,0,0,0,1.92.67,2.94,2.94,0,0,0,1.63-.39c.84-.49.87-1,.08-1.41l-1.81-1.05a3,3,0,0,1,.79-.24,1.58,1.58,0,0,1,.65,0,3.32,3.32,0,0,1,.71.33A15,15,0,0,1,657.87,373Zm-5,.19a.32.32,0,0,1,0-.39,2.45,2.45,0,0,1,.6-.48l1.53.88c.15.09.21.18.17.27a.69.69,0,0,1-.29.26,1.17,1.17,0,0,1-.7.18,2.15,2.15,0,0,1-.83-.31A1.56,1.56,0,0,1,652.82,373.2Z" transform="translate(-308.71 -60.67)"/><path class="cls-85" d="M644.48,359a4.63,4.63,0,0,0,1.62-.15,10.75,10.75,0,0,0,2-.77,6.87,6.87,0,0,0,1.55-1c.3-.29.4-.56.29-.81a1.82,1.82,0,0,0-1-.78,4.39,4.39,0,0,0-1.55-.48,4.52,4.52,0,0,0-1.61.14,10.49,10.49,0,0,0-2,.78,6.61,6.61,0,0,0-1.56,1c-.3.28-.39.55-.29.8a2,2,0,0,0,1,.78A4.82,4.82,0,0,0,644.48,359Zm-1.14-1.35c0-.14.08-.31.32-.49a6.94,6.94,0,0,1,1.18-.69,9.72,9.72,0,0,1,1.38-.59,2.71,2.71,0,0,1,1-.16,2,2,0,0,1,.84.23c.29.14.45.28.47.42s-.07.31-.31.5a8,8,0,0,1-1.18.69,9.12,9.12,0,0,1-1.39.59,2.91,2.91,0,0,1-1,.16,2.1,2.1,0,0,1-.85-.24C643.52,358,643.36,357.83,643.34,357.69Z" transform="translate(-308.71 -60.67)"/><path class="cls-85" d="M649.66,361.63a4.63,4.63,0,0,0,1.62-.15,10.75,10.75,0,0,0,2-.77,7.24,7.24,0,0,0,1.56-1c.3-.29.39-.56.29-.81a1.9,1.9,0,0,0-1-.78,4.24,4.24,0,0,0-3.17-.34,10.49,10.49,0,0,0-2,.78,6.61,6.61,0,0,0-1.56,1c-.3.28-.39.55-.29.8a2,2,0,0,0,1,.78A4.9,4.9,0,0,0,649.66,361.63Zm-1.14-1.35c0-.14.08-.31.32-.49a6.94,6.94,0,0,1,1.18-.69,8.35,8.35,0,0,1,1.39-.59,2.66,2.66,0,0,1,1-.16,2.19,2.19,0,0,1,.84.22c.29.15.45.29.48.43s-.08.31-.32.5a8,8,0,0,1-1.18.69,9.12,9.12,0,0,1-1.39.59,2.89,2.89,0,0,1-1,.16,2.1,2.1,0,0,1-.86-.24C648.7,360.56,648.54,360.42,648.52,360.28Z" transform="translate(-308.71 -60.67)"/><path class="cls-85" d="M658.19,359.7l-.82-.41-3.08,4.84.82.41Z" transform="translate(-308.71 -60.67)"/><path class="cls-85" d="M659.33,366.46a4.35,4.35,0,0,0,1.62-.14,10.23,10.23,0,0,0,2-.78,6.43,6.43,0,0,0,1.55-1c.3-.29.4-.56.29-.81a2,2,0,0,0-1-.78,4.84,4.84,0,0,0-1.55-.48,4.59,4.59,0,0,0-1.62.15,10.43,10.43,0,0,0-2,.78,7,7,0,0,0-1.56,1c-.3.29-.4.55-.29.81a2,2,0,0,0,1,.77A4.39,4.39,0,0,0,659.33,366.46Zm-1.14-1.34c0-.15.09-.31.32-.5a8.88,8.88,0,0,1,1.19-.69,11.05,11.05,0,0,1,1.38-.59,2.89,2.89,0,0,1,1-.16,2,2,0,0,1,.85.23c.29.14.44.29.47.43s-.08.31-.31.49a7.29,7.29,0,0,1-1.19.7,11.05,11.05,0,0,1-1.38.59,2.68,2.68,0,0,1-1,.15,2.13,2.13,0,0,1-.86-.23C658.37,365.4,658.22,365.26,658.19,365.12Z" transform="translate(-308.71 -60.67)"/><path class="cls-85" d="M664.52,369.05a4.39,4.39,0,0,0,1.62-.14,10.17,10.17,0,0,0,2-.78,6.43,6.43,0,0,0,1.55-1c.3-.29.4-.56.29-.81a1.91,1.91,0,0,0-1-.78,4.84,4.84,0,0,0-1.55-.48,4.53,4.53,0,0,0-1.61.15,10.49,10.49,0,0,0-2,.78,7,7,0,0,0-1.56,1c-.3.29-.4.55-.29.81a2,2,0,0,0,1,.77A4.38,4.38,0,0,0,664.52,369.05Zm-1.14-1.34c0-.15.08-.31.32-.5a8,8,0,0,1,1.18-.69,11.05,11.05,0,0,1,1.38-.59,2.91,2.91,0,0,1,1-.16,2,2,0,0,1,.84.23c.29.14.44.29.47.43s-.07.31-.31.49a7.1,7.1,0,0,1-1.18.7,11.76,11.76,0,0,1-1.39.59,2.65,2.65,0,0,1-1,.15,2.17,2.17,0,0,1-.86-.23Q663.41,367.92,663.38,367.71Z" transform="translate(-308.71 -60.67)"/><path class="cls-86" d="M564.53,324.09c0-.09.09-.19.29-.3l1.2-.69,2.45,1.41.88-.5-2.46-1.42L569.6,321l-1.14-.66-5,2.9c-.38.22-.56.46-.54.73s.24.51.65.75l1.54.87c.41.23.81.43,1.2.61l.79-.53-2.26-1.3C564.63,324.28,564.53,324.18,564.53,324.09Z" transform="translate(-308.71 -60.67)"/><path class="cls-86" d="M568.45,327.32l.49-.28c.21-.13.21-.25,0-.37l-.5-.29a.61.61,0,0,0-.64,0l-.49.29c-.1.06-.16.12-.16.18s.06.12.16.18l.5.29A.61.61,0,0,0,568.45,327.32Zm6-3.49-1.09-.63-4.43,2.55,1.09.63Z" transform="translate(-308.71 -60.67)"/><path class="cls-86" d="M574.17,328.92l.91-.66-.31-.19a2.06,2.06,0,0,1-.52-.4,6.93,6.93,0,0,1-.56-.67l3.13-1.8-1.1-.64-4.42,2.55.86.5.75-.32a2.2,2.2,0,0,0,.34.87,2.13,2.13,0,0,0,.7.63Z" transform="translate(-308.71 -60.67)"/><path class="cls-86" d="M577.55,330.8c.39.2.75.36,1.05.49l.68-.48-1.73-1c-.28-.16-.47-.28-.58-.36s-.16-.14-.16-.2.06-.13.19-.2a.69.69,0,0,1,.39-.11,1.59,1.59,0,0,1,.39.08l.3.1,1.52.5a3.7,3.7,0,0,0,1.25.22,2.34,2.34,0,0,0,1.07-.34c.36-.21.56-.4.62-.59a.57.57,0,0,0-.24-.58,5.39,5.39,0,0,0-1-.73,16.75,16.75,0,0,0-2-1l-.69.48c.33.17.85.45,1.54.85.33.19.56.34.7.44s.23.2.23.28,0,.14-.16.21a.74.74,0,0,1-.59.07l-.54-.17-1.48-.49a3.56,3.56,0,0,0-1.27-.2,2.69,2.69,0,0,0-1.07.35,1.19,1.19,0,0,0-.58.55.53.53,0,0,0,.19.55,4.26,4.26,0,0,0,.94.67C576.79,330.43,577.15,330.61,577.55,330.8Z" transform="translate(-308.71 -60.67)"/><path class="cls-86" d="M582,332.35l2.25-1.29a1,1,0,0,1,.52-.17,1.08,1.08,0,0,1,.53.18l.6.35.93-.41a2.26,2.26,0,0,0-.44-.38l-.54-.36a2.33,2.33,0,0,0-1.23-.32,2.58,2.58,0,0,0-1.26.37l-2.45,1.4-.8-.46-.75.44.75.48-1.27.74,1.09.63,1.28-.74,1.3.75.79-.46Z" transform="translate(-308.71 -60.67)"/><path class="cls-86" d="M594.45,335.85c.28-.16.27-.32,0-.48l-.9-.51a.85.85,0,0,0-.37-.12,1.18,1.18,0,0,0-.44,0l-5.57,1.2-.69.15a5.48,5.48,0,0,0-.61.17l-.11-.06c.29-.13.62-.3,1-.51l4.15-2.4-1.11-.64L584,336c-.13.08-.2.16-.19.24s.06.17.2.25l.88.5a.85.85,0,0,0,.36.12,1.47,1.47,0,0,0,.45,0l5.41-1.17.48-.1.94-.21.1.06c-.4.2-.76.39-1.05.56l-4,2.32,1.1.64Z" transform="translate(-308.71 -60.67)"/><path class="cls-86" d="M595.41,340.78a2.87,2.87,0,0,0,1.6-.46l3-1.73-.87-.5-.78.32a1.26,1.26,0,0,0-.18-.73,1.85,1.85,0,0,0-.74-.69,2.93,2.93,0,0,0-1.35-.39,2.47,2.47,0,0,0-1.34.32l-.45.26c-.35.2-.51.43-.48.67s.27.49.68.73l1.66,1-.27.15a1.84,1.84,0,0,1-.47.19.89.89,0,0,1-.42,0,2.51,2.51,0,0,1-.55-.25c-.47-.27-1.05-.64-1.76-1.12l-.89.38c.26.22.59.47,1,.74s.73.5,1,.67A3.49,3.49,0,0,0,595.41,340.78Zm.85-3.3a1.2,1.2,0,0,1,.57.17,1.89,1.89,0,0,1,.5.44,1.45,1.45,0,0,1,.28.62l-.69.39-1.41-.81c-.16-.1-.24-.2-.23-.29s.1-.18.26-.27l.17-.1A1.06,1.06,0,0,1,596.26,337.48Z" transform="translate(-308.71 -60.67)"/><path class="cls-86" d="M603.37,345.41a2.44,2.44,0,0,0,1.22-.35l3.32-1.92-1.07-.62-3,1.73a1.51,1.51,0,0,1-.62.21,1.13,1.13,0,0,1-.57-.16,1.18,1.18,0,0,1-.38-.35,2.64,2.64,0,0,1-.27-.65l3.08-1.78-1.05-.61-3,1.72a1.37,1.37,0,0,1-.62.22,1.13,1.13,0,0,1-.56-.17,1.06,1.06,0,0,1-.38-.34,3.32,3.32,0,0,1-.28-.65l3.09-1.78-1.09-.63-4.42,2.55.89.52.72-.34a1.94,1.94,0,0,0,.28.83,1.92,1.92,0,0,0,.67.62,2.32,2.32,0,0,0,1.87.22,1.74,1.74,0,0,0,.94,1.4A2.42,2.42,0,0,0,603.37,345.41Z" transform="translate(-308.71 -60.67)"/><path class="cls-86" d="M612,346.51l.81-.35a2.67,2.67,0,0,0-.61-.61,6.67,6.67,0,0,0-.92-.61,4.78,4.78,0,0,0-1.52-.61,3.33,3.33,0,0,0-1.44,0,5.94,5.94,0,0,0-1.58.65,3.67,3.67,0,0,0-1.16.93.71.71,0,0,0,0,.82,2.93,2.93,0,0,0,1,.84,4.68,4.68,0,0,0,1.92.66,2.76,2.76,0,0,0,1.63-.39c.84-.49.87-1,.08-1.41l-1.8-1a2.59,2.59,0,0,1,.78-.25,1.43,1.43,0,0,1,.65,0,3.22,3.22,0,0,1,.71.32A15,15,0,0,1,612,346.51Zm-5.05.19a.3.3,0,0,1,0-.38,2.22,2.22,0,0,1,.6-.49l1.53.88c.15.09.21.18.17.27a.69.69,0,0,1-.29.26,1.17,1.17,0,0,1-.7.18,2,2,0,0,1-.83-.31A1.56,1.56,0,0,1,606.9,346.7Z" transform="translate(-308.71 -60.67)"/><path class="cls-86" d="M615.78,349.37a1.12,1.12,0,0,1,.52-.17,1.15,1.15,0,0,1,.53.18l2.17,1.25.92-.48c-.54-.37-1.33-.86-2.39-1.48a2.54,2.54,0,0,0-2.69-.06l-5,2.86,1.13.66Z" transform="translate(-308.71 -60.67)"/><path class="cls-86" d="M620,355a2.9,2.9,0,0,0,1.6-.46l3-1.73-.87-.5-.79.31a1.31,1.31,0,0,0-.17-.72,2,2,0,0,0-.75-.69,2.86,2.86,0,0,0-1.35-.39,2.43,2.43,0,0,0-1.33.32l-.45.26c-.36.2-.52.43-.48.67s.26.49.68.73l1.66,1-.27.15a1.48,1.48,0,0,1-.47.18.81.81,0,0,1-.43,0,2.74,2.74,0,0,1-.55-.25c-.46-.27-1-.64-1.76-1.12l-.88.38c.26.22.58.47,1,.74a11.9,11.9,0,0,0,1,.66A3.58,3.58,0,0,0,620,355Zm.85-3.3a1.2,1.2,0,0,1,.57.17,2.06,2.06,0,0,1,.5.44,1.44,1.44,0,0,1,.27.62l-.68.39-1.41-.81c-.17-.1-.25-.2-.23-.29s.1-.18.26-.27l.17-.1A1,1,0,0,1,620.84,351.67Z" transform="translate(-308.71 -60.67)"/><path class="cls-86" d="M623.88,357.56c.4.19.75.35,1.06.48l.68-.48-1.73-1c-.28-.16-.48-.28-.59-.36s-.16-.14-.15-.2.06-.13.18-.2a.73.73,0,0,1,.39-.11,1.73,1.73,0,0,1,.4.09l.29.1,1.52.5a4,4,0,0,0,1.25.21,2.23,2.23,0,0,0,1.08-.34,1.22,1.22,0,0,0,.62-.59.59.59,0,0,0-.24-.58,5.66,5.66,0,0,0-1-.73,15.92,15.92,0,0,0-2-1l-.7.48c.34.17.85.45,1.55.85a7.45,7.45,0,0,1,.7.45c.15.1.22.19.23.27s0,.15-.17.22a.61.61,0,0,1-.31.09.84.84,0,0,1-.28,0l-.53-.17-1.49-.49a3.27,3.27,0,0,0-1.26-.2,2.37,2.37,0,0,0-1.07.35,1.18,1.18,0,0,0-.58.54.54.54,0,0,0,.18.55,4.37,4.37,0,0,0,1,.67C623.13,357.18,623.48,357.36,623.88,357.56Z" transform="translate(-308.71 -60.67)"/><path class="cls-86" d="M628.3,359.11l2.25-1.3a1.06,1.06,0,0,1,.51-.17,1.15,1.15,0,0,1,.53.18l.61.35.93-.4a2.73,2.73,0,0,0-.45-.39,5,5,0,0,0-.54-.36,2.3,2.3,0,0,0-1.22-.32,2.65,2.65,0,0,0-1.27.37l-2.44,1.4-.8-.45-.75.43.75.48-1.27.74,1.09.63,1.27-.74,1.3.75.8-.45Z" transform="translate(-308.71 -60.67)"/><path class="cls-86" d="M640.78,362.6q.42-.24,0-.48l-.89-.51a.85.85,0,0,0-.37-.12,1.41,1.41,0,0,0-.44,0l-5.57,1.2-.69.15-.61.17-.11-.06q.43-.19,1-.51l4.16-2.4-1.12-.64-5.81,3.36c-.13.07-.2.15-.2.24s.07.16.21.24l.87.51a.87.87,0,0,0,.37.11,1.52,1.52,0,0,0,.45,0l5.41-1.16.47-.11.94-.21.11.06c-.41.2-.76.39-1.05.56l-4,2.32,1.1.64Z" transform="translate(-308.71 -60.67)"/><path class="cls-86" d="M641.75,367.54a3,3,0,0,0,1.6-.46l3-1.74-.86-.5-.79.32a1.33,1.33,0,0,0-.17-.73,2,2,0,0,0-.75-.69,2.86,2.86,0,0,0-1.35-.39,2.43,2.43,0,0,0-1.33.32l-.45.26c-.36.21-.52.43-.48.67s.26.49.68.73l1.66,1-.27.15a1.84,1.84,0,0,1-.47.19,1.08,1.08,0,0,1-.43,0,2.88,2.88,0,0,1-.55-.26c-.46-.27-1-.64-1.76-1.12l-.88.39c.26.21.58.46,1,.74s.73.49,1,.66A3.67,3.67,0,0,0,641.75,367.54Zm.85-3.31a1.11,1.11,0,0,1,.57.18,1.65,1.65,0,0,1,.49.43,1.34,1.34,0,0,1,.28.62l-.68.4-1.41-.82c-.17-.1-.25-.2-.23-.29s.1-.17.26-.27l.17-.09A1.05,1.05,0,0,1,642.6,364.23Z" transform="translate(-308.71 -60.67)"/><path class="cls-86" d="M649.7,372.16a2.38,2.38,0,0,0,1.22-.35l3.33-1.91-1.08-.62-3,1.72a1.48,1.48,0,0,1-.61.21,1,1,0,0,1-.57-.16,1.22,1.22,0,0,1-.39-.35,3.43,3.43,0,0,1-.27-.65l3.09-1.78-1.06-.61-3,1.72a1.3,1.3,0,0,1-.61.22,1.09,1.09,0,0,1-.57-.17,1,1,0,0,1-.37-.34,3.36,3.36,0,0,1-.29-.64l3.1-1.79-1.09-.63-4.43,2.55.9.52.72-.34a1.72,1.72,0,0,0,1,1.45,2.26,2.26,0,0,0,1.86.22,1.76,1.76,0,0,0,.94,1.4A2.28,2.28,0,0,0,649.7,372.16Z" transform="translate(-308.71 -60.67)"/><path class="cls-86" d="M658.29,373.26l.8-.35a2.58,2.58,0,0,0-.6-.61,9.78,9.78,0,0,0-.92-.61,5,5,0,0,0-1.53-.61,3.34,3.34,0,0,0-1.44,0,5.63,5.63,0,0,0-1.57.66,3.43,3.43,0,0,0-1.16.92.69.69,0,0,0,0,.82,2.93,2.93,0,0,0,1,.84,4.58,4.58,0,0,0,1.92.66,2.8,2.8,0,0,0,1.63-.39c.84-.48.87-.95.08-1.41l-1.81-1a2.77,2.77,0,0,1,.78-.25,1.57,1.57,0,0,1,.65,0,3.56,3.56,0,0,1,.72.32C657.26,372.54,657.75,372.87,658.29,373.26Zm-5.06.19a.32.32,0,0,1,0-.38,2.05,2.05,0,0,1,.6-.48l1.52.88c.16.09.22.18.17.26a.58.58,0,0,1-.29.26,1.25,1.25,0,0,1-.69.19,2.2,2.2,0,0,1-.83-.32A1.52,1.52,0,0,1,653.23,373.45Z" transform="translate(-308.71 -60.67)"/><path class="cls-86" d="M645.06,359.42a4.39,4.39,0,0,0,1.62-.14,10.17,10.17,0,0,0,2-.78,6.23,6.23,0,0,0,1.55-1c.3-.29.4-.56.29-.81a1.92,1.92,0,0,0-1-.78,5,5,0,0,0-1.56-.48,4.53,4.53,0,0,0-1.61.15,10.49,10.49,0,0,0-2,.78,7,7,0,0,0-1.56,1c-.3.29-.39.55-.29.81a2,2,0,0,0,1,.77A4.38,4.38,0,0,0,645.06,359.42Zm-1.14-1.34c0-.15.08-.31.32-.5a8.62,8.62,0,0,1,1.18-.69,11.05,11.05,0,0,1,1.38-.59,2.94,2.94,0,0,1,1-.16,2,2,0,0,1,.84.23c.29.14.45.29.47.43s-.07.31-.31.49a6.55,6.55,0,0,1-1.18.69,10.54,10.54,0,0,1-1.39.6,2.65,2.65,0,0,1-1,.15,2.08,2.08,0,0,1-.85-.23C644.1,358.36,643.94,358.22,643.92,358.08Z" transform="translate(-308.71 -60.67)"/><path class="cls-86" d="M650.24,362a4.39,4.39,0,0,0,1.62-.14,10.17,10.17,0,0,0,2-.78,6.33,6.33,0,0,0,1.56-1c.3-.29.39-.56.29-.81a2,2,0,0,0-1-.78,5,5,0,0,0-1.56-.48,4.55,4.55,0,0,0-1.61.15,10.49,10.49,0,0,0-2,.78,7,7,0,0,0-1.56,1c-.3.29-.39.55-.29.81a2,2,0,0,0,1,.77A4.44,4.44,0,0,0,650.24,362Zm-1.14-1.34c0-.15.08-.31.32-.5a8.62,8.62,0,0,1,1.18-.69,10.5,10.5,0,0,1,1.39-.59,2.89,2.89,0,0,1,1-.16,2,2,0,0,1,.84.23c.29.14.45.29.48.43s-.08.31-.31.49a7.12,7.12,0,0,1-1.19.69,10.54,10.54,0,0,1-1.39.6,2.63,2.63,0,0,1-1,.15,2.08,2.08,0,0,1-.86-.23C649.28,361,649.12,360.81,649.1,360.67Z" transform="translate(-308.71 -60.67)"/><path class="cls-86" d="M658.77,360.08l-.82-.4-3.07,4.84.81.41Z" transform="translate(-308.71 -60.67)"/><path class="cls-86" d="M659.91,366.85a4.59,4.59,0,0,0,1.62-.15,10.81,10.81,0,0,0,2-.77,7.12,7.12,0,0,0,1.55-1c.3-.29.4-.56.29-.81a1.9,1.9,0,0,0-1-.78,4.39,4.39,0,0,0-1.55-.48,4.57,4.57,0,0,0-1.62.14,10.43,10.43,0,0,0-2,.78,6.61,6.61,0,0,0-1.56,1c-.3.28-.4.55-.29.8a2,2,0,0,0,1,.78A4.39,4.39,0,0,0,659.91,366.85Zm-1.14-1.35c0-.14.09-.3.32-.49a7.12,7.12,0,0,1,1.19-.69,9.72,9.72,0,0,1,1.38-.59,2.66,2.66,0,0,1,1-.16,2,2,0,0,1,.85.23c.29.14.44.28.47.42s-.08.31-.31.5a8.27,8.27,0,0,1-1.19.69,8.67,8.67,0,0,1-1.38.59,2.94,2.94,0,0,1-1,.16,2.19,2.19,0,0,1-.86-.24C659,365.78,658.8,365.64,658.77,365.5Z" transform="translate(-308.71 -60.67)"/><path class="cls-86" d="M665.1,369.44a4.63,4.63,0,0,0,1.62-.15,10.75,10.75,0,0,0,2-.77,7.12,7.12,0,0,0,1.55-1c.3-.29.4-.56.29-.81a1.82,1.82,0,0,0-1-.78,4.39,4.39,0,0,0-1.55-.48,4.52,4.52,0,0,0-1.61.14,10.49,10.49,0,0,0-2,.78,6.61,6.61,0,0,0-1.56,1c-.3.28-.4.55-.29.8a2,2,0,0,0,1,.78A4.59,4.59,0,0,0,665.1,369.44ZM664,368.09c0-.14.08-.3.32-.49a6.55,6.55,0,0,1,1.18-.69,9.72,9.72,0,0,1,1.38-.59,2.68,2.68,0,0,1,1-.16,2,2,0,0,1,.84.23c.29.14.44.28.47.42s-.07.31-.31.5a8,8,0,0,1-1.18.69,9.12,9.12,0,0,1-1.39.59,2.91,2.91,0,0,1-1,.16,2.19,2.19,0,0,1-.86-.24Q664,368.3,664,368.09Z" transform="translate(-308.71 -60.67)"/><path class="cls-84" d="M551.5,333.85l-1.66-1-6.75,3.9a5.53,5.53,0,0,0-.84.56l-1.54-1.6-1.38.57,1.36,1.85,1.65,1Z" transform="translate(-308.71 -60.67)"/><path class="cls-84" d="M549,343a4.15,4.15,0,0,0,1.59.2,3.75,3.75,0,0,0,1.62-.54,3.21,3.21,0,0,0,1.19-1.05,3.71,3.71,0,0,0,.43-1.64L554,337a11,11,0,0,0,1.34.86l2.82,1.63,1.57-.9-6.24-3.6-1,.57q-.43.26-.45.54l-.26,2.9a4.66,4.66,0,0,1-.31,1.62,1.88,1.88,0,0,1-.8.93,1.41,1.41,0,0,1-1,.18,4.79,4.79,0,0,1-1.25-.56c-.47-.27-.89-.52-1.25-.75s-.78-.53-1.27-.89l-1.37.68a13,13,0,0,0,1.29,1c.39.28.84.56,1.32.85A10.61,10.61,0,0,0,549,343Z" transform="translate(-308.71 -60.67)"/><path class="cls-84" d="M556.47,347.25a3.79,3.79,0,0,0,1.58.16,4.2,4.2,0,0,0,1.57-.56,3.38,3.38,0,0,0,1.28-1.08c.19-.34.08-.68-.32-1l.06,0a3.69,3.69,0,0,0,2,.29,5.67,5.67,0,0,0,2-.75q1.38-.79,1.32-1.56c0-.5-.61-1.07-1.7-1.7a32.62,32.62,0,0,0-3.28-1.61l-1.22.79c1.13.57,2,1,2.63,1.4a3.59,3.59,0,0,1,.94.69.51.51,0,0,1,.11.58,1.91,1.91,0,0,1-.73.63,2.91,2.91,0,0,1-1.42.44,3,3,0,0,1-1.55-.52l-1.7-1-1.24.71,1.7,1a1.71,1.71,0,0,1,.72.62.41.41,0,0,1-.07.49,2.66,2.66,0,0,1-.66.49,2.88,2.88,0,0,1-.89.34,1.72,1.72,0,0,1-.77-.09,7.62,7.62,0,0,1-1-.52c-1-.56-1.72-1-2.31-1.43l-1.34.68a19.44,19.44,0,0,0,2.5,1.72A8.78,8.78,0,0,0,556.47,347.25Z" transform="translate(-308.71 -60.67)"/><path class="cls-84" d="M572.31,349.74l1.11-.65-1-.76,0,0,2.07-1.19-1.57-.91-2.07,1.2-3.59-2.08a2.07,2.07,0,0,0-1.09-.26,2,2,0,0,0-1,.26,1.17,1.17,0,0,0-.37.33l-3.11,4.61,1.61.93,3-4.41a.38.38,0,0,1,.17-.16.58.58,0,0,1,.6.05l2.54,1.47L567,349.62l-1.21,1,1.29.74,4-2.32Z" transform="translate(-308.71 -60.67)"/><path class="cls-84" d="M583.37,361.24l-3.76-2.17,1.84-1.19,1.29.59a7.53,7.53,0,0,0,3.19.86,5.47,5.47,0,0,0,2.74-.78c.88-.51,1.38-1.05,1.48-1.62s-.42-1.19-1.58-1.86a23.47,23.47,0,0,0-3.22-1.51l-1.17.87a21.59,21.59,0,0,1,2.54,1.24,3.08,3.08,0,0,1,1,.77.48.48,0,0,1,0,.6,2.62,2.62,0,0,1-.8.62,2.78,2.78,0,0,1-1.15.4,2.84,2.84,0,0,1-1.12-.19c-.39-.14-1-.4-1.79-.79l-1-.45a1.17,1.17,0,0,0-.63-.13,1.12,1.12,0,0,0-.6.18l-3.75,2.42,5.13,3Z" transform="translate(-308.71 -60.67)"/><path class="cls-84" d="M592.45,364.11a4,4,0,0,0,1.72-.08,9.1,9.1,0,0,0,2-.87,5.88,5.88,0,0,0,1.53-1.17,1,1,0,0,0,.16-1.14,3.75,3.75,0,0,0-1.52-1.32,7.14,7.14,0,0,0-2.45-.94,5,5,0,0,0-2.32.24,18.71,18.71,0,0,0-3.11,1.5,10,10,0,0,0-2.69,2,1.21,1.21,0,0,0-.23,1.48,5,5,0,0,0,1.76,1.43,12.21,12.21,0,0,0,2.25,1l1-.73c-.44-.23-1.08-.6-1.93-1.09a2.68,2.68,0,0,1-1-.79.67.67,0,0,1,.14-.81,6.43,6.43,0,0,1,1.49-1.15,1.31,1.31,0,0,0,.31.87,3.75,3.75,0,0,0,1,.8A6.08,6.08,0,0,0,592.45,364.11Zm3.26-3.12a.53.53,0,0,1-.17.57,6.48,6.48,0,0,1-2.1,1.19,2.2,2.2,0,0,1-1,.05,3.58,3.58,0,0,1-1-.42,2.64,2.64,0,0,1-.7-.56,2,2,0,0,1-.35-.75,21.6,21.6,0,0,1,2-1,2.73,2.73,0,0,1,1.26-.23,3.67,3.67,0,0,1,1.34.5C595.39,360.57,595.64,360.79,595.71,361Z" transform="translate(-308.71 -60.67)"/><path class="cls-84" d="M597.16,370.58a1.24,1.24,0,0,0,.69-.16,1,1,0,0,0,.25-.2l5.4-6.35-1.65-.95-4.56,5.42a2.13,2.13,0,0,0-.44.65l-4.3-2.48-1.47.76,5.33,3.08A1.67,1.67,0,0,0,597.16,370.58Z" transform="translate(-308.71 -60.67)"/><path class="cls-84" d="M603.57,374.36a3.89,3.89,0,0,0,1.68.08,5.46,5.46,0,0,0,1.67-.66,2.62,2.62,0,0,0,1.13-1c.16-.34,0-.66-.36-.95l0,0a3.11,3.11,0,0,0,1.91.28,6.11,6.11,0,0,0,2.07-.8,3,3,0,0,0,1.13-1,.87.87,0,0,0-.21-1,6.72,6.72,0,0,0-1.75-1.3,9.65,9.65,0,0,0-2.24-1,4,4,0,0,0-1.76-.13,5.19,5.19,0,0,0-1.68.65,3.44,3.44,0,0,0-1.39,1.2c-.2.37,0,.73.47,1.09l0,0a2.75,2.75,0,0,0-1.64-.2,5.09,5.09,0,0,0-1.77.65,3.28,3.28,0,0,0-1.15,1,.83.83,0,0,0,.15,1,5.9,5.9,0,0,0,1.61,1.22A8.86,8.86,0,0,0,603.57,374.36Zm2.14-4.61a.41.41,0,0,1-.06-.54,2.22,2.22,0,0,1,.77-.61,3.4,3.4,0,0,1,1-.42,2,2,0,0,1,.93,0,5.52,5.52,0,0,1,1.19.54,4,4,0,0,1,.92.68.42.42,0,0,1,.06.53,2.37,2.37,0,0,1-.74.59,4.21,4.21,0,0,1-1.06.45,1.92,1.92,0,0,1-.92,0,5.61,5.61,0,0,1-1.17-.53A3.87,3.87,0,0,1,605.71,369.75Zm-3.84,2.32a.39.39,0,0,1-.06-.5,2.15,2.15,0,0,1,.69-.54,3.46,3.46,0,0,1,1-.4,1.9,1.9,0,0,1,.85,0,4.89,4.89,0,0,1,1.08.5,3.52,3.52,0,0,1,.86.62.36.36,0,0,1,0,.48,2.48,2.48,0,0,1-.71.54,4,4,0,0,1-.93.4,1.88,1.88,0,0,1-.85,0,5.09,5.09,0,0,1-1.09-.49A3.42,3.42,0,0,1,601.87,372.07Z" transform="translate(-308.71 -60.67)"/><path class="cls-84" d="M620.4,383.91a4.77,4.77,0,0,0,2.27-.27,20,20,0,0,0,3.09-1.51,10.4,10.4,0,0,0,2.69-2,1.22,1.22,0,0,0,.27-1.47,5,5,0,0,0-1.8-1.47,13.5,13.5,0,0,0-2.41-1.13l-1,.74c.49.25,1.19.64,2.1,1.16a2.4,2.4,0,0,1,1,.84.77.77,0,0,1-.2.84,6.33,6.33,0,0,1-1.45,1.12,1.32,1.32,0,0,0-.28-.91,3.74,3.74,0,0,0-1.05-.81,4.54,4.54,0,0,0-2.74-.65,7,7,0,0,0-2.77.94c-1.11.64-1.68,1.24-1.72,1.8s.51,1.17,1.62,1.81A7,7,0,0,0,620.4,383.91Zm3.05-3.28a2.14,2.14,0,0,1,.34.79,20.06,20.06,0,0,1-1.95,1,2.63,2.63,0,0,1-1.24.23,3.43,3.43,0,0,1-1.32-.49,1.8,1.8,0,0,1-.75-.66.51.51,0,0,1,.15-.6,4.46,4.46,0,0,1,1-.68,3.89,3.89,0,0,1,1.59-.57,2.64,2.64,0,0,1,1.53.41A2.42,2.42,0,0,1,623.45,380.63Z" transform="translate(-308.71 -60.67)"/><path class="cls-84" d="M628.44,388.49a6.21,6.21,0,0,0,2.55-.26,15.41,15.41,0,0,0,3.1-1.42,10.47,10.47,0,0,0,2.45-1.78,1.44,1.44,0,0,0,.45-1.48,3.25,3.25,0,0,0-1.51-1.42,6.65,6.65,0,0,0-2.45-.87,6,6,0,0,0-2.54.27,14.81,14.81,0,0,0-3.1,1.42,10.4,10.4,0,0,0-2.46,1.79,1.41,1.41,0,0,0-.46,1.46,3.25,3.25,0,0,0,1.51,1.42A6.63,6.63,0,0,0,628.44,388.49Zm-1.8-2.45c0-.26.13-.56.5-.9a11.71,11.71,0,0,1,1.87-1.26,14.89,14.89,0,0,1,2.18-1.08,4.18,4.18,0,0,1,1.55-.29,3.08,3.08,0,0,1,1.33.42c.46.26.7.52.75.78s-.12.56-.49.9a11.71,11.71,0,0,1-1.87,1.26,14.38,14.38,0,0,1-2.19,1.08,4,4,0,0,1-1.56.29,3.09,3.09,0,0,1-1.35-.43C626.92,386.55,626.68,386.29,626.64,386Z" transform="translate(-308.71 -60.67)"/><path class="cls-84" d="M643.53,387l-1.66-1-6.75,3.89a6.93,6.93,0,0,0-.83.56l-1.54-1.59-1.38.57,1.35,1.85,1.66,1Z" transform="translate(-308.71 -60.67)"/><path class="cls-84" d="M641,396.09a4,4,0,0,0,1.6.21,3.93,3.93,0,0,0,1.62-.54,3.29,3.29,0,0,0,1.19-1.05,3.86,3.86,0,0,0,.43-1.65l.18-2.91a13.25,13.25,0,0,0,1.34.87l2.83,1.63,1.56-.9-6.23-3.6-1,.57q-.43.25-.45.54l-.25,2.9a4.84,4.84,0,0,1-.31,1.61,1.88,1.88,0,0,1-.8.93,1.32,1.32,0,0,1-1,.18,4.84,4.84,0,0,1-1.25-.55c-.47-.27-.88-.52-1.24-.76s-.78-.52-1.28-.88l-1.37.68a13,13,0,0,0,1.29,1.05c.4.28.84.56,1.33.84A9.18,9.18,0,0,0,641,396.09Z" transform="translate(-308.71 -60.67)"/><path class="cls-84" d="M657.26,405.44a3.79,3.79,0,0,0,1.58.16,4.2,4.2,0,0,0,1.57-.56,3.38,3.38,0,0,0,1.28-1.08c.19-.34.08-.68-.32-1l.06,0a3.59,3.59,0,0,0,2,.29,5.67,5.67,0,0,0,2-.75q1.38-.79,1.32-1.56c-.05-.5-.61-1.07-1.7-1.7a32.62,32.62,0,0,0-3.28-1.61l-1.22.79c1.13.57,2,1,2.63,1.4a3.59,3.59,0,0,1,.94.69.52.52,0,0,1,.11.59,2,2,0,0,1-.73.62,2.91,2.91,0,0,1-1.42.44,3,3,0,0,1-1.55-.52l-1.7-1-1.24.71,1.7,1a1.71,1.71,0,0,1,.72.62.41.41,0,0,1-.07.49,2.66,2.66,0,0,1-.66.49,2.88,2.88,0,0,1-.89.34,1.59,1.59,0,0,1-.77-.09,7.1,7.1,0,0,1-1.05-.52c-.95-.55-1.72-1-2.31-1.43l-1.34.68a19.44,19.44,0,0,0,2.5,1.72A8.78,8.78,0,0,0,657.26,405.44Z" transform="translate(-308.71 -60.67)"/><path class="cls-84" d="M673.1,407.93l1.12-.64-1-.77,0,0,2.07-1.19-1.57-.9-2.07,1.19-3.59-2.07a2,2,0,0,0-1.09-.27,2,2,0,0,0-1.05.26,1.17,1.17,0,0,0-.37.33l-3.1,4.62,1.6.92,3-4.41a.44.44,0,0,1,.17-.16.58.58,0,0,1,.6.05l2.54,1.47-2.54,1.47-1.21,1,1.29.75,4-2.33Z" transform="translate(-308.71 -60.67)"/><path class="cls-84" d="M675.41,414.38l-3.77-2.18,1.85-1.18,1.28.59a7.72,7.72,0,0,0,3.2.86,5.41,5.41,0,0,0,2.73-.78,2.68,2.68,0,0,0,1.49-1.62c.1-.58-.42-1.2-1.58-1.86a24,24,0,0,0-3.22-1.51l-1.17.87a23.14,23.14,0,0,1,2.53,1.23,3.29,3.29,0,0,1,1,.78.47.47,0,0,1,0,.6,2.58,2.58,0,0,1-.79.62,2.66,2.66,0,0,1-1.16.39,2.8,2.8,0,0,1-1.11-.18c-.39-.15-1-.41-1.79-.79l-1-.45a1.23,1.23,0,0,0-.64-.13,1.06,1.06,0,0,0-.59.18L669,412.23l5.14,3Z" transform="translate(-308.71 -60.67)"/><path class="cls-84" d="M684.48,417.24a3.86,3.86,0,0,0,1.72-.08,7.88,7.88,0,0,0,2-.87,5.36,5.36,0,0,0,1.53-1.17,1,1,0,0,0,.16-1.14,3.68,3.68,0,0,0-1.52-1.31,7.14,7.14,0,0,0-2.44-.95,5,5,0,0,0-2.33.25,17.89,17.89,0,0,0-3.11,1.5,9.49,9.49,0,0,0-2.68,2,1.21,1.21,0,0,0-.23,1.48,5.13,5.13,0,0,0,1.76,1.43,11.85,11.85,0,0,0,2.24,1l1.05-.73c-.44-.24-1.09-.6-1.94-1.09a2.78,2.78,0,0,1-1-.8.67.67,0,0,1,.15-.8,6.32,6.32,0,0,1,1.48-1.15,1.36,1.36,0,0,0,.31.87,3.91,3.91,0,0,0,1,.79A5.77,5.77,0,0,0,684.48,417.24Zm3.27-3.11a.52.52,0,0,1-.18.57,4.7,4.7,0,0,1-1,.67,5.32,5.32,0,0,1-1.14.51,2,2,0,0,1-1,.05,3.1,3.1,0,0,1-1-.42,2.56,2.56,0,0,1-.69-.55,2,2,0,0,1-.35-.76,17.81,17.81,0,0,1,2-1,2.69,2.69,0,0,1,1.25-.23,3.44,3.44,0,0,1,1.34.5A1.57,1.57,0,0,1,687.75,414.13Z" transform="translate(-308.71 -60.67)"/><path class="cls-86" d="M551.91,334.06l-1.66-1L543.5,337a6.39,6.39,0,0,0-.84.56L541.12,336l-1.38.56,1.36,1.86,1.65.95Z" transform="translate(-308.71 -60.67)"/><path class="cls-86" d="M549.41,343.17a4,4,0,0,0,1.6.2,3.82,3.82,0,0,0,1.61-.53,3.31,3.31,0,0,0,1.19-1.06,3.55,3.55,0,0,0,.43-1.64l.19-2.91a12.19,12.19,0,0,0,1.34.87l2.82,1.63,1.57-.91-6.24-3.6-1,.58c-.29.17-.44.35-.45.53l-.25,2.91a4.82,4.82,0,0,1-.32,1.61,1.88,1.88,0,0,1-.8.93,1.3,1.3,0,0,1-1,.18,4.6,4.6,0,0,1-1.25-.56c-.47-.27-.88-.52-1.24-.75s-.79-.53-1.28-.88l-1.37.68a13,13,0,0,0,1.29,1.05c.39.28.84.56,1.32.84A9.88,9.88,0,0,0,549.41,343.17Z" transform="translate(-308.71 -60.67)"/><path class="cls-86" d="M556.88,347.47a3.78,3.78,0,0,0,1.58.15,4,4,0,0,0,1.57-.56,3.38,3.38,0,0,0,1.28-1.08c.19-.34.08-.68-.31-1l0,0a3.7,3.7,0,0,0,2,.28,5.62,5.62,0,0,0,2-.75c.92-.53,1.35-1,1.31-1.55s-.61-1.08-1.7-1.71a34.93,34.93,0,0,0-3.28-1.61l-1.22.8c1.14.57,2,1,2.63,1.39a3.81,3.81,0,0,1,.94.7.49.49,0,0,1,.11.58,1.9,1.9,0,0,1-.73.62,3,3,0,0,1-1.41.45,3.14,3.14,0,0,1-1.56-.53l-1.7-1-1.24.71,1.7,1a1.83,1.83,0,0,1,.73.62.43.43,0,0,1-.08.5,2.94,2.94,0,0,1-.66.49,2.82,2.82,0,0,1-.89.33,1.49,1.49,0,0,1-.77-.09,8.22,8.22,0,0,1-1.05-.52c-.95-.55-1.72-1-2.3-1.42l-1.34.68a17.71,17.71,0,0,0,2.49,1.71A8.87,8.87,0,0,0,556.88,347.47Z" transform="translate(-308.71 -60.67)"/><path class="cls-86" d="M572.72,350l1.12-.64-1-.77h0l2.07-1.2-1.57-.9-2.07,1.19-3.59-2.07a2,2,0,0,0-1.09-.27,2,2,0,0,0-1.05.26,1.2,1.2,0,0,0-.37.34l-3.1,4.61,1.6.92,3-4.41a.44.44,0,0,1,.17-.16.58.58,0,0,1,.6.06l2.55,1.47-2.55,1.47-1.21,1,1.29.75,4-2.33Z" transform="translate(-308.71 -60.67)"/><path class="cls-86" d="M583.78,361.46,580,359.28l1.84-1.19,1.29.59a7.6,7.6,0,0,0,3.2.87,5.43,5.43,0,0,0,2.73-.78,2.67,2.67,0,0,0,1.48-1.63c.11-.57-.42-1.19-1.58-1.86a24.71,24.71,0,0,0-3.22-1.51l-1.17.88a21.65,21.65,0,0,1,2.54,1.23,3.22,3.22,0,0,1,1,.77.5.5,0,0,1,0,.61,2.65,2.65,0,0,1-.8.62,2.62,2.62,0,0,1-1.15.39,2.67,2.67,0,0,1-1.12-.19c-.38-.14-1-.4-1.79-.78l-1-.46a1.34,1.34,0,0,0-.64-.13,1.12,1.12,0,0,0-.6.19l-3.75,2.41,5.13,3Z" transform="translate(-308.71 -60.67)"/><path class="cls-86" d="M592.86,364.32a4,4,0,0,0,1.72-.08,8.89,8.89,0,0,0,2-.87,5.88,5.88,0,0,0,1.53-1.17,1,1,0,0,0,.16-1.14,3.68,3.68,0,0,0-1.52-1.31,7.18,7.18,0,0,0-2.45-.95,4.86,4.86,0,0,0-2.32.25,18.11,18.11,0,0,0-3.11,1.49,10,10,0,0,0-2.69,2,1.24,1.24,0,0,0-.23,1.49,5.09,5.09,0,0,0,1.77,1.43,11.76,11.76,0,0,0,2.24,1l1-.73c-.44-.23-1.08-.59-1.93-1.08a2.78,2.78,0,0,1-1-.8c-.15-.23-.1-.5.14-.8a5.92,5.92,0,0,1,1.49-1.15,1.35,1.35,0,0,0,.31.87,4,4,0,0,0,1,.79A5.59,5.59,0,0,0,592.86,364.32Zm3.26-3.12a.53.53,0,0,1-.17.58,5.15,5.15,0,0,1-1,.67,5.06,5.06,0,0,1-1.13.51,2.06,2.06,0,0,1-1,.05,3.58,3.58,0,0,1-1-.42,2.64,2.64,0,0,1-.7-.56,2,2,0,0,1-.35-.75,20.27,20.27,0,0,1,2-1A2.65,2.65,0,0,1,594,360a3.28,3.28,0,0,1,1.34.5A1.58,1.58,0,0,1,596.12,361.2Z" transform="translate(-308.71 -60.67)"/><path class="cls-86" d="M597.58,370.8a1.22,1.22,0,0,0,.68-.16.87.87,0,0,0,.25-.21l5.4-6.35-1.65-.95-4.56,5.43a2,2,0,0,0-.44.65L593,366.72l-1.48.76,5.34,3.08A1.74,1.74,0,0,0,597.58,370.8Z" transform="translate(-308.71 -60.67)"/><path class="cls-86" d="M604,374.57a3.94,3.94,0,0,0,1.69.09,5.56,5.56,0,0,0,1.66-.67,2.67,2.67,0,0,0,1.13-1c.16-.35,0-.66-.36-1l0,0a3.18,3.18,0,0,0,1.91.28,6.33,6.33,0,0,0,2.07-.8,2.91,2.91,0,0,0,1.13-1,.88.88,0,0,0-.2-1,7.25,7.25,0,0,0-1.76-1.3,10.1,10.1,0,0,0-2.24-1,3.86,3.86,0,0,0-1.76-.12,5.16,5.16,0,0,0-1.68.64,3.6,3.6,0,0,0-1.39,1.2c-.2.37,0,.74.47,1.09l-.05,0a2.83,2.83,0,0,0-1.64-.21,5.41,5.41,0,0,0-1.77.66,3,3,0,0,0-1.14,1,.81.81,0,0,0,.14,1,5.71,5.71,0,0,0,1.61,1.22A8.8,8.8,0,0,0,604,374.57Zm2.14-4.61a.41.41,0,0,1-.06-.54,2.35,2.35,0,0,1,.77-.61,3.82,3.82,0,0,1,1-.42,2,2,0,0,1,.93,0A5.52,5.52,0,0,1,610,369a3.31,3.31,0,0,1,.92.68.42.42,0,0,1,.06.53,2.37,2.37,0,0,1-.74.58,3.94,3.94,0,0,1-1.06.46,1.81,1.81,0,0,1-.92,0,5.13,5.13,0,0,1-1.17-.53A3.62,3.62,0,0,1,606.12,370Zm-3.84,2.32a.39.39,0,0,1-.06-.49,2.29,2.29,0,0,1,.69-.55,3.12,3.12,0,0,1,1-.39,1.76,1.76,0,0,1,.85,0,4.89,4.89,0,0,1,1.08.5,3.32,3.32,0,0,1,.86.62.36.36,0,0,1,0,.48,2.48,2.48,0,0,1-.71.54,3.51,3.51,0,0,1-.93.4,1.64,1.64,0,0,1-.85,0,4.42,4.42,0,0,1-1.08-.49A2.91,2.91,0,0,1,602.28,372.28Z" transform="translate(-308.71 -60.67)"/><path class="cls-86" d="M620.82,384.12a4.74,4.74,0,0,0,2.26-.27,19.13,19.13,0,0,0,3.09-1.51,10.4,10.4,0,0,0,2.69-2,1.21,1.21,0,0,0,.27-1.46,5,5,0,0,0-1.8-1.48,14.24,14.24,0,0,0-2.41-1.13l-1,.74q.74.38,2.1,1.17a2.47,2.47,0,0,1,1,.83.77.77,0,0,1-.2.84,6.33,6.33,0,0,1-1.45,1.12,1.25,1.25,0,0,0-.28-.9,3.82,3.82,0,0,0-1-.81,4.45,4.45,0,0,0-2.75-.65,6.81,6.81,0,0,0-2.77.94q-1.66,1-1.71,1.8c0,.56.5,1.16,1.62,1.81A6.86,6.86,0,0,0,620.82,384.12Zm3-3.27a1.87,1.87,0,0,1,.34.79,19.47,19.47,0,0,1-2,1,2.63,2.63,0,0,1-1.24.23,3.56,3.56,0,0,1-1.32-.48,1.8,1.8,0,0,1-.75-.67.51.51,0,0,1,.15-.6,4.16,4.16,0,0,1,1-.67,3.83,3.83,0,0,1,1.59-.58,2.74,2.74,0,0,1,1.53.42A2.26,2.26,0,0,1,623.86,380.85Z" transform="translate(-308.71 -60.67)"/><path class="cls-86" d="M628.85,388.71a6.4,6.4,0,0,0,2.55-.27,14.77,14.77,0,0,0,3.1-1.41,10.74,10.74,0,0,0,2.45-1.79,1.45,1.45,0,0,0,.46-1.47,3.24,3.24,0,0,0-1.52-1.42,6.31,6.31,0,0,0-2.45-.87,6.13,6.13,0,0,0-2.54.26,15.35,15.35,0,0,0-3.1,1.42,10.4,10.4,0,0,0-2.46,1.79,1.43,1.43,0,0,0-.46,1.47,3.24,3.24,0,0,0,1.51,1.41A6.48,6.48,0,0,0,628.85,388.71Zm-1.8-2.46q-.06-.39.51-.9a11.08,11.08,0,0,1,1.86-1.26A15.18,15.18,0,0,1,631.6,383a3.81,3.81,0,0,1,1.55-.29,3,3,0,0,1,1.34.41c.45.26.69.53.74.79s-.12.56-.49.89a11.82,11.82,0,0,1-1.87,1.27,16.56,16.56,0,0,1-2.19,1.08,4.11,4.11,0,0,1-1.55.28,3.13,3.13,0,0,1-1.36-.43C627.33,386.77,627.09,386.51,627.05,386.25Z" transform="translate(-308.71 -60.67)"/><path class="cls-86" d="M643.94,387.2l-1.65-1-6.76,3.9a5.92,5.92,0,0,0-.83.56l-1.54-1.6-1.38.57,1.35,1.85,1.66,1Z" transform="translate(-308.71 -60.67)"/><path class="cls-86" d="M641.44,396.31a4.22,4.22,0,0,0,1.6.2,3.79,3.79,0,0,0,1.62-.54,3.29,3.29,0,0,0,1.19-1.05,3.71,3.71,0,0,0,.43-1.64l.18-2.91a11.87,11.87,0,0,0,1.34.86l2.83,1.63,1.57-.9-6.24-3.6-1,.57q-.44.26-.45.54l-.25,2.9A4.9,4.9,0,0,1,644,394a1.88,1.88,0,0,1-.8.93,1.31,1.31,0,0,1-1,.18,4.83,4.83,0,0,1-1.26-.56c-.47-.27-.88-.52-1.24-.75s-.78-.53-1.28-.89l-1.36.68a13,13,0,0,0,1.28,1.05c.4.28.84.56,1.33.85A10.55,10.55,0,0,0,641.44,396.31Z" transform="translate(-308.71 -60.67)"/><path class="cls-86" d="M657.67,405.66a3.78,3.78,0,0,0,1.58.15,4.11,4.11,0,0,0,1.57-.55,3.48,3.48,0,0,0,1.28-1.09c.19-.34.08-.68-.31-1l.05,0a3.71,3.71,0,0,0,2,.29,5.65,5.65,0,0,0,2-.76c.92-.53,1.35-1,1.31-1.55s-.61-1.08-1.7-1.7a34.72,34.72,0,0,0-3.28-1.62l-1.22.8c1.14.57,2,1,2.63,1.39a3.81,3.81,0,0,1,.94.7.49.49,0,0,1,.11.58,1.82,1.82,0,0,1-.73.62,2.5,2.5,0,0,1-3-.08l-1.7-1-1.24.72,1.7,1a1.83,1.83,0,0,1,.73.61.43.43,0,0,1-.08.5,2.94,2.94,0,0,1-.66.49,2.59,2.59,0,0,1-.89.33,1.49,1.49,0,0,1-.77-.09,8.22,8.22,0,0,1-1-.52c-1-.55-1.72-1-2.3-1.42l-1.34.68a17.71,17.71,0,0,0,2.49,1.71A8.87,8.87,0,0,0,657.67,405.66Z" transform="translate(-308.71 -60.67)"/><path class="cls-86" d="M673.51,408.14l1.12-.64-1-.77h0l2.07-1.2-1.57-.9-2.07,1.19-3.59-2.07a2.18,2.18,0,0,0-1.09-.27,2.15,2.15,0,0,0-1,.26,1.2,1.2,0,0,0-.37.34l-3.1,4.61,1.6.93,3-4.42a.53.53,0,0,1,.17-.16.58.58,0,0,1,.6.06l2.55,1.47L668.22,408l-1.21,1,1.29.74,4-2.33Z" transform="translate(-308.71 -60.67)"/><path class="cls-86" d="M675.82,414.59l-3.77-2.17,1.85-1.19,1.28.59a7.57,7.57,0,0,0,3.2.86,5.41,5.41,0,0,0,2.73-.78,2.68,2.68,0,0,0,1.49-1.62c.11-.57-.42-1.19-1.58-1.86a24,24,0,0,0-3.22-1.51l-1.17.87a21.39,21.39,0,0,1,2.53,1.24,3,3,0,0,1,1,.77.47.47,0,0,1,0,.6,2.43,2.43,0,0,1-.79.62,2.68,2.68,0,0,1-1.16.4,2.82,2.82,0,0,1-1.11-.19,19.54,19.54,0,0,1-1.79-.79l-1-.45a1.21,1.21,0,0,0-.64-.13,1,1,0,0,0-.59.19l-3.76,2.41,5.14,3Z" transform="translate(-308.71 -60.67)"/><path class="cls-86" d="M684.89,417.46a4,4,0,0,0,1.72-.08,8.69,8.69,0,0,0,2-.87,5.55,5.55,0,0,0,1.53-1.17,1,1,0,0,0,.16-1.14,3.68,3.68,0,0,0-1.52-1.32,7.1,7.1,0,0,0-2.44-.94,5,5,0,0,0-2.32.24,19.13,19.13,0,0,0-3.12,1.5,9.89,9.89,0,0,0-2.68,2,1.21,1.21,0,0,0-.23,1.48,5.13,5.13,0,0,0,1.76,1.44,12.74,12.74,0,0,0,2.24,1l1-.73c-.44-.23-1.09-.6-1.94-1.09a2.78,2.78,0,0,1-1-.79.68.68,0,0,1,.15-.81,6.32,6.32,0,0,1,1.48-1.15,1.32,1.32,0,0,0,.32.87,3.68,3.68,0,0,0,1,.8A6.28,6.28,0,0,0,684.89,417.46Zm3.27-3.12a.53.53,0,0,1-.17.57,6.39,6.39,0,0,1-2.11,1.19,2.19,2.19,0,0,1-1,0,3.43,3.43,0,0,1-1-.42,2.48,2.48,0,0,1-.7-.56,1.87,1.87,0,0,1-.35-.75,20.37,20.37,0,0,1,2-1,2.57,2.57,0,0,1,1.26-.22,3.51,3.51,0,0,1,1.34.49C687.84,413.92,688.09,414.14,688.16,414.34Z" transform="translate(-308.71 -60.67)"/><path class="cls-55" d="M501.18,367.48a6.71,6.71,0,0,0,2.72-.94,3.19,3.19,0,0,0,1.41-1.27A1.15,1.15,0,0,0,505,364a8.57,8.57,0,0,0-2-1.45c-1.18-.68-2.11-1.21-2.8-1.59s-1.4-.75-2.14-1.11l-11.4,6.58q.82.57,1.71,1.11c.59.36,1.4.84,2.44,1.44a14,14,0,0,0,2.65,1.24,5,5,0,0,0,2.15.2,6.26,6.26,0,0,0,2.2-.83q1.24-.72,1.41-1.35c.11-.43-.16-.87-.8-1.31l.07,0A5,5,0,0,0,501.18,367.48Zm.45-3.34a.44.44,0,0,1,.08.56,2.43,2.43,0,0,1-.82.66,4.79,4.79,0,0,1-1.24.52,2.28,2.28,0,0,1-1.07,0,6.36,6.36,0,0,1-1.28-.55l-1.85-1.07,3.31-1.91,1.91,1.11A3.46,3.46,0,0,1,501.63,364.14Zm-6.92,4.32a2.05,2.05,0,0,1-.95-.06,6.64,6.64,0,0,1-1.17-.54l-1.7-1,2.89-1.67,1.84,1.06c.61.36.94.66,1,.9s-.25.54-.83.88A3.54,3.54,0,0,1,494.71,368.46Z" transform="translate(-308.71 -60.67)"/><path class="cls-55" d="M507.39,374.18a5.74,5.74,0,0,0,3.1-.9l5.39-3.11-1.94-1.11-1.49.57a2.15,2.15,0,0,0-.24-1.33,3.32,3.32,0,0,0-1.32-1.24,5.54,5.54,0,0,0-2.54-.74,4.4,4.4,0,0,0-2.47.56l-.83.48c-.65.38-.93.8-.86,1.26s.51.92,1.29,1.37l2.91,1.68-.36.21a2.11,2.11,0,0,1-1.14.32,3.14,3.14,0,0,1-1.26-.48c-.9-.52-2-1.21-3.3-2.06l-1.89.82c.49.41,1.11.87,1.87,1.4s1.42,1,2,1.28A6.81,6.81,0,0,0,507.39,374.18Zm1.44-5.95a2,2,0,0,1,.93.3,2.91,2.91,0,0,1,.79.7,2.43,2.43,0,0,1,.45.93l-1.14.66-2.2-1.27c-.27-.17-.4-.33-.39-.47s.13-.29.38-.43l.31-.18A1.59,1.59,0,0,1,508.83,368.23Z" transform="translate(-308.71 -60.67)"/><path class="cls-55" d="M517.36,380a4.36,4.36,0,0,0,2.27-.63l6.11-3.53-2.43-1.4L518,377.56a2.13,2.13,0,0,1-.93.33,1.37,1.37,0,0,1-.82-.24,2.84,2.84,0,0,1-.82-.67,6.15,6.15,0,0,1-.72-1.07l5.59-3.21-2.45-1.41-8.15,4.7,2,1.15,1.38-.59a4,4,0,0,0,2.05,2.84A4.48,4.48,0,0,0,517.36,380Z" transform="translate(-308.71 -60.67)"/><path class="cls-55" d="M527,381l-.76-.43a14.78,14.78,0,0,0,1.34-.64l2.56-1.48L527.71,377l-11.57,6.67,2.45,1.42,4.77-2.76a9.55,9.55,0,0,0,1.37-.93l.76.44-.82,2.81,2.74,1.58.71-2.85a.9.9,0,0,0,.09-.46,1.33,1.33,0,0,0-.07-.43l0,0a5.65,5.65,0,0,0,.75,0c.33,0,.62,0,.89-.07l6-.72-2.74-1.58Z" transform="translate(-308.71 -60.67)"/><path class="cls-55" d="M540,393.08a4.47,4.47,0,0,0,2.27-.64l6.11-3.53-2.43-1.4-5.35,3.09a2.26,2.26,0,0,1-.93.34,1.55,1.55,0,0,1-.82-.24A3,3,0,0,1,538,390a6.15,6.15,0,0,1-.72-1.07l5.59-3.21-2.45-1.41L532.25,389l2,1.14,1.38-.59a3.94,3.94,0,0,0,2,2.84A4.59,4.59,0,0,0,540,393.08Z" transform="translate(-308.71 -60.67)"/><path class="cls-55" d="M549.25,398.34a5.64,5.64,0,0,0,3.1-.89l5.39-3.11-1.94-1.11-1.48.57a2.21,2.21,0,0,0-.25-1.33,3.23,3.23,0,0,0-1.33-1.24,5.6,5.6,0,0,0-2.53-.75,4.41,4.41,0,0,0-2.47.57l-.83.48c-.65.37-.93.79-.86,1.26s.51.92,1.29,1.37l2.91,1.68-.36.21a2.2,2.2,0,0,1-1.14.32,3.14,3.14,0,0,1-1.26-.48c-.9-.52-2-1.21-3.3-2.06l-1.89.82c.49.4,1.11.87,1.87,1.4s1.42.95,2,1.28A6.91,6.91,0,0,0,549.25,398.34Zm1.44-5.94a2,2,0,0,1,.93.3,2.71,2.71,0,0,1,.79.69,2.55,2.55,0,0,1,.45.94l-1.14.66-2.2-1.27c-.27-.17-.41-.33-.39-.47s.13-.3.38-.44l.31-.18A1.67,1.67,0,0,1,550.69,392.4Z" transform="translate(-308.71 -60.67)"/><path class="cls-55" d="M563.85,406.88a4.41,4.41,0,0,0,2.26-.64l6.12-3.53-2.43-1.4-5.35,3.09a2.19,2.19,0,0,1-.93.32,1.57,1.57,0,0,1-.89-.26,1.9,1.9,0,0,1-.61-.53,4.2,4.2,0,0,1-.48-.94l5.58-3.23-2.34-1.35-5.36,3.09a2,2,0,0,1-.95.31,1.84,1.84,0,0,1-.88-.26A1.9,1.9,0,0,1,557,401a4.31,4.31,0,0,1-.48-.93l5.6-3.23-2.43-1.4-8.15,4.7,2,1.13,1.36-.59a3.23,3.23,0,0,0,.46,1.5,3.49,3.49,0,0,0,1.22,1.11,4.23,4.23,0,0,0,3.42.45,2.94,2.94,0,0,0,.45,1.41,3.47,3.47,0,0,0,1.21,1.07A4.41,4.41,0,0,0,563.85,406.88Z" transform="translate(-308.71 -60.67)"/><path class="cls-55" d="M579.47,409.12l1.75-.74a4.92,4.92,0,0,0-1.16-1.21,16.24,16.24,0,0,0-1.78-1.2,9.68,9.68,0,0,0-2.92-1.17,6.4,6.4,0,0,0-2.72,0,10.34,10.34,0,0,0-2.87,1.17,6.46,6.46,0,0,0-2.13,1.72,1.29,1.29,0,0,0,0,1.54,5.87,5.87,0,0,0,2,1.63,8.84,8.84,0,0,0,3.65,1.29,5.28,5.28,0,0,0,3.06-.7c.76-.44,1.14-.88,1.12-1.33s-.45-.92-1.32-1.42l-2.94-1.7a3.62,3.62,0,0,1,1.74-.38,4.37,4.37,0,0,1,1.7.63C577.48,407.76,578.43,408.38,579.47,409.12Zm-8.85.09a.49.49,0,0,1,.06-.6,4.09,4.09,0,0,1,1-.78l2.31,1.34c.3.17.43.33.39.47s-.19.3-.47.45a1.84,1.84,0,0,1-1.11.29,3.85,3.85,0,0,1-1.38-.54A2.12,2.12,0,0,1,570.62,409.21Z" transform="translate(-308.71 -60.67)"/><path class="cls-54" d="M593.16,437.62a14.15,14.15,0,0,0,.39,3.36l40,23.07a19.87,19.87,0,0,0,17.86,0l48-27.72-29.54-17.06c-17.54-10.13-46-10.13-63.53,0C597.53,424.34,593.16,431,593.16,437.62Z" transform="translate(-308.71 -60.67)"/><path class="cls-54" d="M571.12,313.19l43.58,25.16c9.9,5.71,23.25,8.21,36.17,7.48L597.43,315h0l-8.19-4.73-5.83-3.37-.64-.37Z" transform="translate(-308.71 -60.67)"/><polygon class="cls-66" points="188.57 335.74 188.57 322.92 307.24 254.4 315.49 240.11 180.31 318.15 180.31 350.03 188.57 335.74"/><path class="cls-87" d="M479.51,373.35v31.88c11.61,6.7,2.13,1.2,9.51,5.47V378.83C481.64,374.56,491.17,380.08,479.51,373.35Z" transform="translate(-308.71 -60.67)"/><path class="cls-88" d="M479.51,373.35c11.61,6.7,2.13,1.21,9.51,5.48l135.19-78.05c-7.49-4.32,2,1.18-9.52-5.48Z" transform="translate(-308.71 -60.67)"/><rect class="cls-89" x="692.02" y="385.23" width="10.89" height="18.87" transform="translate(783.43 -363.47) rotate(90)"/><rect class="cls-90" x="701.7" y="390.93" width="10.89" height="18.87" transform="translate(798.81 -367.45) rotate(90)"/><polygon class="cls-91" points="170.8 344.55 170.8 312.68 305.98 234.63 280.62 223.21 155.02 296.33 155.02 322.77 170.8 344.55"/><path class="cls-92" d="M487.14,346.73,606.8,277.64c3.91-2.26,7.09-7.26,7.09-11.18V231c0-3.91-3.18-5.25-7.09-3L487.14,297.12c-3.92,2.26-7.09,7.27-7.09,11.19v35.42C480.05,347.65,483.22,349,487.14,346.73Z" transform="translate(-308.71 -60.67)"/><path class="cls-74" d="M571.61,292.69l35.54-20.51a3.08,3.08,0,0,0,1.47-2.33V234.32c0-.82-.66-1.1-1.47-.63l-35.54,20.52a3.06,3.06,0,0,0-1.47,2.33v35.53C570.14,292.88,570.8,293.16,571.61,292.69Z" transform="translate(-308.71 -60.67)"/><polygon class="cls-74" points="182.71 248.43 254.31 207.1 254.31 198.5 182.71 239.83 182.71 248.43"/><polygon class="cls-74" points="199.98 246.85 254.31 215.49 254.31 212.29 199.98 243.65 199.98 246.85"/><polygon class="cls-74" points="199.98 252.52 254.31 221.16 254.31 217.96 199.98 249.32 199.98 252.52"/><polygon class="cls-74" points="199.98 258.19 254.31 226.83 254.31 223.63 199.98 254.99 199.98 258.19"/><polygon class="cls-74" points="199.98 267.98 254.31 236.62 254.31 233.41 199.98 264.78 199.98 267.98"/><path class="cls-92" d="M487.14,285.29,606.8,216.2c3.91-2.26,7.09-7.26,7.09-11.18V169.59c0-3.91-3.18-5.25-7.09-3L487.14,235.68c-3.92,2.26-7.09,7.27-7.09,11.19v35.42C480.05,286.21,483.22,287.55,487.14,285.29Z" transform="translate(-308.71 -60.67)"/><path class="cls-74" d="M571.61,231.25l35.54-20.51a3.08,3.08,0,0,0,1.47-2.33V172.88c0-.82-.66-1.1-1.47-.63l-35.54,20.52a3.06,3.06,0,0,0-1.47,2.32v35.54C570.14,231.44,570.8,231.72,571.61,231.25Z" transform="translate(-308.71 -60.67)"/><polygon class="cls-74" points="182.71 186.99 254.31 145.66 254.31 137.06 182.71 178.39 182.71 186.99"/><polygon class="cls-74" points="199.98 185.41 254.31 154.05 254.31 150.85 199.98 182.21 199.98 185.41"/><polygon class="cls-74" points="199.98 191.08 254.31 159.72 254.31 156.52 199.98 187.88 199.98 191.08"/><polygon class="cls-74" points="199.98 196.75 254.31 165.39 254.31 162.19 199.98 193.55 199.98 196.75"/><polygon class="cls-74" points="199.98 206.54 254.31 175.18 254.31 171.97 199.98 203.34 199.98 206.54"/></g></g></svg>